<svg width="181" height="14" viewBox="0 0 181 14" fill="none" xmlns="http://www.w3.org/2000/svg">
<path d="M4.152 11.056C3.508 11.056 2.92467 10.9067 2.402 10.608C1.88867 10.3093 1.478 9.88 1.17 9.32C0.871333 8.76 0.722 8.102 0.722 7.346C0.722 6.57133 0.871333 5.90867 1.17 5.358C1.478 4.80733 1.88867 4.38267 2.402 4.084C2.92467 3.78533 3.508 3.636 4.152 3.636C4.84267 3.636 5.45867 3.79467 6 4.112C6.55067 4.42 6.98 4.854 7.288 5.414C7.60533 5.96467 7.764 6.60867 7.764 7.346C7.764 8.074 7.60533 8.718 7.288 9.278C6.98 9.838 6.55067 10.2767 6 10.594C5.45867 10.902 4.84267 11.056 4.152 11.056ZM0.484 11V0.611999H1.184V6.058L1.044 7.332L1.156 8.606V11H0.484ZM4.11 10.426C4.67 10.426 5.174 10.3 5.622 10.048C6.07 9.78667 6.42 9.42267 6.672 8.956C6.93333 8.48933 7.064 7.95267 7.064 7.346C7.064 6.73 6.93333 6.19333 6.672 5.736C6.42 5.26933 6.07 4.91 5.622 4.658C5.174 4.39667 4.67 4.266 4.11 4.266C3.55 4.266 3.046 4.39667 2.598 4.658C2.15933 4.91 1.80933 5.26933 1.548 5.736C1.296 6.19333 1.17 6.73 1.17 7.346C1.17 7.95267 1.296 8.48933 1.548 8.956C1.80933 9.42267 2.15933 9.78667 2.598 10.048C3.046 10.3 3.55 10.426 4.11 10.426ZM9.55819 13.772C9.22219 13.772 8.90485 13.716 8.60619 13.604C8.31685 13.492 8.06952 13.3287 7.86419 13.114L8.21419 12.582C8.40085 12.778 8.60152 12.9227 8.81619 13.016C9.04019 13.1093 9.29219 13.156 9.57219 13.156C9.90819 13.156 10.2022 13.0627 10.4542 12.876C10.7155 12.6893 10.9582 12.3487 11.1822 11.854L11.6862 10.734L11.7842 10.608L14.8782 3.692H15.5922L11.8402 11.994C11.6442 12.442 11.4295 12.792 11.1962 13.044C10.9722 13.3053 10.7249 13.492 10.4542 13.604C10.1835 13.716 9.88485 13.772 9.55819 13.772ZM11.6722 11.182L8.28419 3.692H9.02619L12.1062 10.566L11.6722 11.182ZM23.6164 11.056C22.907 11.056 22.2724 10.8973 21.7124 10.58C21.1617 10.2627 20.723 9.824 20.3964 9.264C20.079 8.704 19.9204 8.06467 19.9204 7.346C19.9204 6.618 20.079 5.974 20.3964 5.414C20.723 4.854 21.1617 4.42 21.7124 4.112C22.2724 3.79467 22.907 3.636 23.6164 3.636C24.2044 3.636 24.7364 3.748 25.2124 3.972C25.6977 4.196 26.0897 4.532 26.3884 4.98L25.8704 5.358C25.609 4.98467 25.2824 4.70933 24.8904 4.532C24.4984 4.35467 24.0737 4.266 23.6164 4.266C23.047 4.266 22.5337 4.39667 22.0764 4.658C21.6284 4.91 21.2737 5.26933 21.0124 5.736C20.7604 6.19333 20.6344 6.73 20.6344 7.346C20.6344 7.962 20.7604 8.50333 21.0124 8.97C21.2737 9.42733 21.6284 9.78667 22.0764 10.048C22.5337 10.3 23.047 10.426 23.6164 10.426C24.0737 10.426 24.4984 10.3373 24.8904 10.16C25.2824 9.98267 25.609 9.70733 25.8704 9.334L26.3884 9.712C26.0897 10.16 25.6977 10.496 25.2124 10.72C24.7364 10.944 24.2044 11.056 23.6164 11.056ZM28.484 11V3.692H29.156V5.694L29.086 5.47C29.2913 4.882 29.6367 4.42933 30.122 4.112C30.6073 3.79467 31.214 3.636 31.942 3.636V4.322C31.914 4.322 31.886 4.322 31.858 4.322C31.83 4.31267 31.802 4.308 31.774 4.308C30.962 4.308 30.3273 4.56467 29.87 5.078C29.4127 5.582 29.184 6.28667 29.184 7.192V11H28.484ZM36.7704 11.056C36.033 11.056 35.3797 10.8973 34.8104 10.58C34.2504 10.2627 33.807 9.824 33.4804 9.264C33.163 8.704 33.0044 8.06467 33.0044 7.346C33.0044 6.618 33.1537 5.97867 33.4524 5.428C33.7604 4.868 34.1804 4.42933 34.7124 4.112C35.2444 3.79467 35.8417 3.636 36.5044 3.636C37.167 3.636 37.7597 3.79 38.2824 4.098C38.8144 4.406 39.2297 4.84 39.5284 5.4C39.8364 5.95067 39.9904 6.59 39.9904 7.318C39.9904 7.346 39.9857 7.37867 39.9764 7.416C39.9764 7.444 39.9764 7.47667 39.9764 7.514H33.5224V6.968H39.5984L39.3184 7.234C39.3277 6.66467 39.2064 6.156 38.9544 5.708C38.7117 5.25067 38.3804 4.896 37.9604 4.644C37.5404 4.38267 37.055 4.252 36.5044 4.252C35.963 4.252 35.4777 4.38267 35.0484 4.644C34.6284 4.896 34.297 5.25067 34.0544 5.708C33.8117 6.156 33.6904 6.66933 33.6904 7.248V7.374C33.6904 7.97133 33.821 8.50333 34.0824 8.97C34.353 9.42733 34.7217 9.78667 35.1884 10.048C35.655 10.3 36.187 10.426 36.7844 10.426C37.251 10.426 37.685 10.342 38.0864 10.174C38.497 10.006 38.8424 9.74933 39.1224 9.404L39.5284 9.866C39.211 10.258 38.8097 10.5567 38.3244 10.762C37.8484 10.958 37.3304 11.056 36.7704 11.056ZM46.5568 11V9.334L46.5288 9.082V6.338C46.5288 5.65667 46.3421 5.13867 45.9688 4.784C45.6048 4.42933 45.0681 4.252 44.3588 4.252C43.8548 4.252 43.3835 4.34067 42.9448 4.518C42.5155 4.686 42.1468 4.90533 41.8388 5.176L41.4888 4.672C41.8528 4.34533 42.2915 4.09333 42.8048 3.916C43.3181 3.72933 43.8548 3.636 44.4148 3.636C45.3201 3.636 46.0155 3.86467 46.5008 4.322C46.9861 4.77933 47.2288 5.46067 47.2288 6.366V11H46.5568ZM43.9248 11.056C43.3835 11.056 42.9121 10.972 42.5108 10.804C42.1188 10.6267 41.8155 10.3793 41.6008 10.062C41.3955 9.74467 41.2928 9.38067 41.2928 8.97C41.2928 8.59667 41.3768 8.26067 41.5448 7.962C41.7221 7.654 42.0115 7.40667 42.4128 7.22C42.8141 7.024 43.3508 6.926 44.0228 6.926H46.7108V7.472H44.0368C43.2808 7.472 42.7488 7.612 42.4408 7.892C42.1421 8.172 41.9928 8.522 41.9928 8.942C41.9928 9.40867 42.1701 9.782 42.5248 10.062C42.8795 10.342 43.3788 10.482 44.0228 10.482C44.6388 10.482 45.1568 10.342 45.5768 10.062C46.0061 9.782 46.3235 9.376 46.5288 8.844L46.7248 9.32C46.5288 9.852 46.1928 10.2767 45.7168 10.594C45.2501 10.902 44.6528 11.056 43.9248 11.056ZM52.2409 11.056C51.5969 11.056 51.1022 10.8787 50.7569 10.524C50.4209 10.1693 50.2529 9.684 50.2529 9.068V2.096H50.9529V8.998C50.9529 9.46467 51.0696 9.824 51.3029 10.076C51.5362 10.328 51.8722 10.454 52.3109 10.454C52.7682 10.454 53.1462 10.3187 53.4449 10.048L53.7389 10.538C53.5522 10.7153 53.3236 10.846 53.0529 10.93C52.7916 11.014 52.5209 11.056 52.2409 11.056ZM48.9089 4.294V3.692H53.2769V4.294H48.9089ZM55.691 11V3.692H56.391V11H55.691ZM56.041 1.914C55.8824 1.914 55.747 1.858 55.635 1.746C55.523 1.634 55.467 1.50333 55.467 1.354C55.467 1.19533 55.523 1.06 55.635 0.947999C55.747 0.836 55.8824 0.78 56.041 0.78C56.209 0.78 56.3444 0.836 56.447 0.947999C56.559 1.05067 56.615 1.18133 56.615 1.34C56.615 1.49867 56.559 1.634 56.447 1.746C56.3444 1.858 56.209 1.914 56.041 1.914ZM62.9114 3.636C63.5088 3.636 64.0268 3.75267 64.4654 3.986C64.9134 4.21 65.2588 4.55533 65.5014 5.022C65.7534 5.47933 65.8794 6.04867 65.8794 6.73V11H65.1794V6.786C65.1794 5.96467 64.9694 5.33933 64.5494 4.91C64.1388 4.48067 63.5601 4.266 62.8134 4.266C62.2441 4.266 61.7494 4.38267 61.3294 4.616C60.9094 4.84933 60.5874 5.176 60.3634 5.596C60.1488 6.016 60.0414 6.52 60.0414 7.108V11H59.3414V3.692H60.0134V5.722L59.9154 5.498C60.1394 4.91933 60.5081 4.46667 61.0214 4.14C61.5348 3.804 62.1648 3.636 62.9114 3.636ZM71.7993 13.772C71.1367 13.772 70.5067 13.6693 69.9093 13.464C69.312 13.2587 68.8267 12.974 68.4533 12.61L68.8313 12.078C69.1953 12.414 69.6293 12.6753 70.1333 12.862C70.6467 13.0487 71.1973 13.142 71.7853 13.142C72.7653 13.142 73.484 12.9133 73.9413 12.456C74.408 11.9987 74.6413 11.28 74.6413 10.3V8.27L74.7813 7.178L74.6693 6.086V3.692H75.3413V10.216C75.3413 11.4387 75.0427 12.3347 74.4453 12.904C73.8573 13.4827 72.9753 13.772 71.7993 13.772ZM71.6033 10.734C70.9127 10.734 70.292 10.5847 69.7413 10.286C69.2 9.978 68.766 9.558 68.4393 9.026C68.122 8.48467 67.9633 7.86867 67.9633 7.178C67.9633 6.478 68.122 5.862 68.4393 5.33C68.766 4.798 69.2 4.38267 69.7413 4.084C70.292 3.78533 70.9127 3.636 71.6033 3.636C72.266 3.636 72.8587 3.78067 73.3813 4.07C73.9133 4.35 74.3333 4.756 74.6413 5.288C74.9493 5.81067 75.1033 6.44067 75.1033 7.178C75.1033 7.906 74.9493 8.536 74.6413 9.068C74.3333 9.6 73.9133 10.0107 73.3813 10.3C72.8587 10.5893 72.266 10.734 71.6033 10.734ZM71.6593 10.104C72.2473 10.104 72.7653 9.98267 73.2133 9.74C73.6613 9.488 74.0113 9.14267 74.2633 8.704C74.5247 8.256 74.6553 7.74733 74.6553 7.178C74.6553 6.59933 74.5247 6.09067 74.2633 5.652C74.0113 5.21333 73.6613 4.87267 73.2133 4.63C72.7653 4.38733 72.2473 4.266 71.6593 4.266C71.09 4.266 70.5767 4.38733 70.1193 4.63C69.6713 4.87267 69.3167 5.21333 69.0553 5.652C68.8033 6.09067 68.6773 6.59933 68.6773 7.178C68.6773 7.74733 68.8033 8.256 69.0553 8.704C69.3167 9.14267 69.6713 9.488 70.1193 9.74C70.5767 9.98267 71.09 10.104 71.6593 10.104ZM86.506 11V9.334L86.478 9.082V6.338C86.478 5.65667 86.2913 5.13867 85.918 4.784C85.554 4.42933 85.0173 4.252 84.308 4.252C83.804 4.252 83.3327 4.34067 82.894 4.518C82.4647 4.686 82.096 4.90533 81.788 5.176L81.438 4.672C81.802 4.34533 82.2407 4.09333 82.754 3.916C83.2673 3.72933 83.804 3.636 84.364 3.636C85.2693 3.636 85.9647 3.86467 86.45 4.322C86.9353 4.77933 87.178 5.46067 87.178 6.366V11H86.506ZM83.874 11.056C83.3327 11.056 82.8613 10.972 82.46 10.804C82.068 10.6267 81.7647 10.3793 81.55 10.062C81.3447 9.74467 81.242 9.38067 81.242 8.97C81.242 8.59667 81.326 8.26067 81.494 7.962C81.6713 7.654 81.9607 7.40667 82.362 7.22C82.7633 7.024 83.3 6.926 83.972 6.926H86.66V7.472H83.986C83.23 7.472 82.698 7.612 82.39 7.892C82.0913 8.172 81.942 8.522 81.942 8.942C81.942 9.40867 82.1193 9.782 82.474 10.062C82.8287 10.342 83.328 10.482 83.972 10.482C84.588 10.482 85.106 10.342 85.526 10.062C85.9553 9.782 86.2727 9.376 86.478 8.844L86.674 9.32C86.478 9.852 86.142 10.2767 85.666 10.594C85.1993 10.902 84.602 11.056 83.874 11.056ZM93.7978 11V2.572C93.7978 1.96533 93.9705 1.48 94.3158 1.116C94.6705 0.742666 95.1745 0.555999 95.8278 0.555999C96.0985 0.555999 96.3645 0.597999 96.6258 0.681999C96.8872 0.756666 97.1018 0.873333 97.2698 1.032L96.9898 1.564C96.8498 1.424 96.6818 1.32133 96.4858 1.256C96.2898 1.19067 96.0798 1.158 95.8558 1.158C95.4078 1.158 95.0672 1.284 94.8338 1.536C94.6005 1.77867 94.4838 2.14267 94.4838 2.628V3.86L94.4978 4.196V11H93.7978ZM92.4538 4.294V3.692H96.8218V4.294H92.4538ZM98.2516 11V3.692H98.9236V5.694L98.8536 5.47C99.0589 4.882 99.4042 4.42933 99.8896 4.112C100.375 3.79467 100.982 3.636 101.71 3.636V4.322C101.682 4.322 101.654 4.322 101.626 4.322C101.598 4.31267 101.57 4.308 101.542 4.308C100.73 4.308 100.095 4.56467 99.6376 5.078C99.1802 5.582 98.9516 6.28667 98.9516 7.192V11H98.2516ZM106.538 11.056C105.801 11.056 105.147 10.8973 104.578 10.58C104.018 10.2627 103.575 9.824 103.248 9.264C102.931 8.704 102.772 8.06467 102.772 7.346C102.772 6.618 102.921 5.97867 103.22 5.428C103.528 4.868 103.948 4.42933 104.48 4.112C105.012 3.79467 105.609 3.636 106.272 3.636C106.935 3.636 107.527 3.79 108.05 4.098C108.582 4.406 108.997 4.84 109.296 5.4C109.604 5.95067 109.758 6.59 109.758 7.318C109.758 7.346 109.753 7.37867 109.744 7.416C109.744 7.444 109.744 7.47667 109.744 7.514H103.29V6.968H109.366L109.086 7.234C109.095 6.66467 108.974 6.156 108.722 5.708C108.479 5.25067 108.148 4.896 107.728 4.644C107.308 4.38267 106.823 4.252 106.272 4.252C105.731 4.252 105.245 4.38267 104.816 4.644C104.396 4.896 104.065 5.25067 103.822 5.708C103.579 6.156 103.458 6.66933 103.458 7.248V7.374C103.458 7.97133 103.589 8.50333 103.85 8.97C104.121 9.42733 104.489 9.78667 104.956 10.048C105.423 10.3 105.955 10.426 106.552 10.426C107.019 10.426 107.453 10.342 107.854 10.174C108.265 10.006 108.61 9.74933 108.89 9.404L109.296 9.866C108.979 10.258 108.577 10.5567 108.092 10.762C107.616 10.958 107.098 11.056 106.538 11.056ZM114.891 11.056C114.154 11.056 113.501 10.8973 112.931 10.58C112.371 10.2627 111.928 9.824 111.601 9.264C111.284 8.704 111.125 8.06467 111.125 7.346C111.125 6.618 111.275 5.97867 111.573 5.428C111.881 4.868 112.301 4.42933 112.833 4.112C113.365 3.79467 113.963 3.636 114.625 3.636C115.288 3.636 115.881 3.79 116.403 4.098C116.935 4.406 117.351 4.84 117.649 5.4C117.957 5.95067 118.111 6.59 118.111 7.318C118.111 7.346 118.107 7.37867 118.097 7.416C118.097 7.444 118.097 7.47667 118.097 7.514H111.643V6.968H117.719L117.439 7.234C117.449 6.66467 117.327 6.156 117.075 5.708C116.833 5.25067 116.501 4.896 116.081 4.644C115.661 4.38267 115.176 4.252 114.625 4.252C114.084 4.252 113.599 4.38267 113.169 4.644C112.749 4.896 112.418 5.25067 112.175 5.708C111.933 6.156 111.811 6.66933 111.811 7.248V7.374C111.811 7.97133 111.942 8.50333 112.203 8.97C112.474 9.42733 112.843 9.78667 113.309 10.048C113.776 10.3 114.308 10.426 114.905 10.426C115.372 10.426 115.806 10.342 116.207 10.174C116.618 10.006 116.963 9.74933 117.243 9.404L117.649 9.866C117.332 10.258 116.931 10.5567 116.445 10.762C115.969 10.958 115.451 11.056 114.891 11.056ZM128.479 11V9.334L128.451 9.082V6.338C128.451 5.65667 128.264 5.13867 127.891 4.784C127.527 4.42933 126.99 4.252 126.281 4.252C125.777 4.252 125.305 4.34067 124.867 4.518C124.437 4.686 124.069 4.90533 123.761 5.176L123.411 4.672C123.775 4.34533 124.213 4.09333 124.727 3.916C125.24 3.72933 125.777 3.636 126.337 3.636C127.242 3.636 127.937 3.86467 128.423 4.322C128.908 4.77933 129.151 5.46067 129.151 6.366V11H128.479ZM125.847 11.056C125.305 11.056 124.834 10.972 124.433 10.804C124.041 10.6267 123.737 10.3793 123.523 10.062C123.317 9.74467 123.215 9.38067 123.215 8.97C123.215 8.59667 123.299 8.26067 123.467 7.962C123.644 7.654 123.933 7.40667 124.335 7.22C124.736 7.024 125.273 6.926 125.945 6.926H128.633V7.472H125.959C125.203 7.472 124.671 7.612 124.363 7.892C124.064 8.172 123.915 8.522 123.915 8.942C123.915 9.40867 124.092 9.782 124.447 10.062C124.801 10.342 125.301 10.482 125.945 10.482C126.561 10.482 127.079 10.342 127.499 10.062C127.928 9.782 128.245 9.376 128.451 8.844L128.647 9.32C128.451 9.852 128.115 10.2767 127.639 10.594C127.172 10.902 126.575 11.056 125.847 11.056ZM134.933 11.056C134.223 11.056 133.589 10.8973 133.029 10.58C132.478 10.2627 132.039 9.824 131.713 9.264C131.395 8.704 131.237 8.06467 131.237 7.346C131.237 6.618 131.395 5.974 131.713 5.414C132.039 4.854 132.478 4.42 133.029 4.112C133.589 3.79467 134.223 3.636 134.933 3.636C135.521 3.636 136.053 3.748 136.529 3.972C137.014 4.196 137.406 4.532 137.705 4.98L137.187 5.358C136.925 4.98467 136.599 4.70933 136.207 4.532C135.815 4.35467 135.39 4.266 134.933 4.266C134.363 4.266 133.85 4.39667 133.393 4.658C132.945 4.91 132.59 5.26933 132.329 5.736C132.077 6.19333 131.951 6.73 131.951 7.346C131.951 7.962 132.077 8.50333 132.329 8.97C132.59 9.42733 132.945 9.78667 133.393 10.048C133.85 10.3 134.363 10.426 134.933 10.426C135.39 10.426 135.815 10.3373 136.207 10.16C136.599 9.98267 136.925 9.70733 137.187 9.334L137.705 9.712C137.406 10.16 137.014 10.496 136.529 10.72C136.053 10.944 135.521 11.056 134.933 11.056ZM142.575 11.056C141.866 11.056 141.231 10.8973 140.671 10.58C140.121 10.2627 139.682 9.824 139.355 9.264C139.038 8.704 138.879 8.06467 138.879 7.346C138.879 6.618 139.038 5.974 139.355 5.414C139.682 4.854 140.121 4.42 140.671 4.112C141.231 3.79467 141.866 3.636 142.575 3.636C143.163 3.636 143.695 3.748 144.171 3.972C144.657 4.196 145.049 4.532 145.347 4.98L144.829 5.358C144.568 4.98467 144.241 4.70933 143.849 4.532C143.457 4.35467 143.033 4.266 142.575 4.266C142.006 4.266 141.493 4.39667 141.035 4.658C140.587 4.91 140.233 5.26933 139.971 5.736C139.719 6.19333 139.593 6.73 139.593 7.346C139.593 7.962 139.719 8.50333 139.971 8.97C140.233 9.42733 140.587 9.78667 141.035 10.048C141.493 10.3 142.006 10.426 142.575 10.426C143.033 10.426 143.457 10.3373 143.849 10.16C144.241 9.98267 144.568 9.70733 144.829 9.334L145.347 9.712C145.049 10.16 144.657 10.496 144.171 10.72C143.695 10.944 143.163 11.056 142.575 11.056ZM150.176 11.056C149.476 11.056 148.851 10.8973 148.3 10.58C147.759 10.2627 147.325 9.824 146.998 9.264C146.681 8.704 146.522 8.06467 146.522 7.346C146.522 6.618 146.681 5.97867 146.998 5.428C147.325 4.868 147.759 4.42933 148.3 4.112C148.851 3.79467 149.476 3.636 150.176 3.636C150.876 3.636 151.501 3.79467 152.052 4.112C152.603 4.42933 153.037 4.868 153.354 5.428C153.671 5.97867 153.83 6.618 153.83 7.346C153.83 8.06467 153.671 8.704 153.354 9.264C153.037 9.824 152.603 10.2627 152.052 10.58C151.501 10.8973 150.876 11.056 150.176 11.056ZM150.176 10.426C150.736 10.426 151.24 10.3 151.688 10.048C152.136 9.78667 152.486 9.42267 152.738 8.956C152.99 8.48933 153.116 7.95267 153.116 7.346C153.116 6.73 152.99 6.19333 152.738 5.736C152.486 5.26933 152.136 4.91 151.688 4.658C151.24 4.39667 150.736 4.266 150.176 4.266C149.616 4.266 149.112 4.39667 148.664 4.658C148.225 4.91 147.875 5.26933 147.614 5.736C147.362 6.19333 147.236 6.73 147.236 7.346C147.236 7.95267 147.362 8.48933 147.614 8.956C147.875 9.42267 148.225 9.78667 148.664 10.048C149.112 10.3 149.616 10.426 150.176 10.426ZM158.97 11.056C158.344 11.056 157.803 10.944 157.346 10.72C156.888 10.4867 156.534 10.1413 156.282 9.684C156.039 9.21733 155.918 8.64333 155.918 7.962V3.692H156.618V7.906C156.618 8.72733 156.828 9.35267 157.248 9.782C157.668 10.2113 158.26 10.426 159.026 10.426C159.576 10.426 160.052 10.3093 160.454 10.076C160.855 9.84267 161.163 9.516 161.378 9.096C161.592 8.66667 161.7 8.16267 161.7 7.584V3.692H162.4V11H161.728V8.97L161.826 9.208C161.611 9.77733 161.252 10.23 160.748 10.566C160.253 10.8927 159.66 11.056 158.97 11.056ZM168.937 3.636C169.534 3.636 170.052 3.75267 170.491 3.986C170.939 4.21 171.284 4.55533 171.527 5.022C171.779 5.47933 171.905 6.04867 171.905 6.73V11H171.205V6.786C171.205 5.96467 170.995 5.33933 170.575 4.91C170.164 4.48067 169.585 4.266 168.839 4.266C168.269 4.266 167.775 4.38267 167.355 4.616C166.935 4.84933 166.613 5.176 166.389 5.596C166.174 6.016 166.067 6.52 166.067 7.108V11H165.367V3.692H166.039V5.722L165.941 5.498C166.165 4.91933 166.533 4.46667 167.047 4.14C167.56 3.804 168.19 3.636 168.937 3.636ZM176.915 11.056C176.271 11.056 175.776 10.8787 175.431 10.524C175.095 10.1693 174.927 9.684 174.927 9.068V2.096H175.627V8.998C175.627 9.46467 175.743 9.824 175.977 10.076C176.21 10.328 176.546 10.454 176.985 10.454C177.442 10.454 177.82 10.3187 178.119 10.048L178.413 10.538C178.226 10.7153 177.997 10.846 177.727 10.93C177.465 11.014 177.195 11.056 176.915 11.056ZM173.583 4.294V3.692H177.951V4.294H173.583ZM180.418 11.056C180.259 11.056 180.119 11 179.998 10.888C179.886 10.7667 179.83 10.622 179.83 10.454C179.83 10.286 179.886 10.146 179.998 10.034C180.119 9.922 180.259 9.866 180.418 9.866C180.576 9.866 180.712 9.922 180.824 10.034C180.945 10.146 181.006 10.286 181.006 10.454C181.006 10.622 180.945 10.7667 180.824 10.888C180.712 11 180.576 11.056 180.418 11.056Z" fill="#252525"/>
</svg>
