<svg width="91" height="23" viewBox="0 0 91 23" fill="none" xmlns="http://www.w3.org/2000/svg">
<path d="M3.568 7.968H11.656V10.992H3.568V7.968ZM3.856 14.88H13V18H-0.0079999V1.2H12.688V4.32H3.856V14.88ZM14.0569 18L19.8409 10.416L19.7689 12.48L14.2249 5.088H18.4249L21.9289 9.912L20.3449 9.96L23.9689 5.088H27.9529L22.3849 12.408V10.392L28.1449 18H23.8969L20.2249 12.864L21.7849 13.08L18.1369 18H14.0569ZM37.5944 18.192C36.5064 18.192 35.5544 17.952 34.7384 17.472C33.9224 16.992 33.2824 16.264 32.8184 15.288C32.3704 14.296 32.1464 13.048 32.1464 11.544C32.1464 10.024 32.3624 8.776 32.7944 7.8C33.2264 6.824 33.8504 6.096 34.6664 5.616C35.4824 5.136 36.4584 4.896 37.5944 4.896C38.8104 4.896 39.8984 5.176 40.8584 5.736C41.8344 6.28 42.6024 7.048 43.1624 8.04C43.7384 9.032 44.0264 10.2 44.0264 11.544C44.0264 12.904 43.7384 14.08 43.1624 15.072C42.6024 16.064 41.8344 16.832 40.8584 17.376C39.8984 17.92 38.8104 18.192 37.5944 18.192ZM29.9624 22.656V5.088H33.5384V7.728L33.4664 11.568L33.7064 15.384V22.656H29.9624ZM36.9464 15.12C37.5704 15.12 38.1224 14.976 38.6024 14.688C39.0984 14.4 39.4904 13.992 39.7784 13.464C40.0824 12.92 40.2344 12.28 40.2344 11.544C40.2344 10.792 40.0824 10.152 39.7784 9.624C39.4904 9.096 39.0984 8.688 38.6024 8.4C38.1224 8.112 37.5704 7.968 36.9464 7.968C36.3224 7.968 35.7624 8.112 35.2664 8.4C34.7704 8.688 34.3784 9.096 34.0904 9.624C33.8024 10.152 33.6584 10.792 33.6584 11.544C33.6584 12.28 33.8024 12.92 34.0904 13.464C34.3784 13.992 34.7704 14.4 35.2664 14.688C35.7624 14.976 36.3224 15.12 36.9464 15.12ZM46.5327 18V0.191999H50.2767V18H46.5327ZM59.8954 18.192C58.5194 18.192 57.2954 17.904 56.2234 17.328C55.1674 16.752 54.3274 15.968 53.7034 14.976C53.0954 13.968 52.7914 12.824 52.7914 11.544C52.7914 10.248 53.0954 9.104 53.7034 8.112C54.3274 7.104 55.1674 6.32 56.2234 5.76C57.2954 5.184 58.5194 4.896 59.8954 4.896C61.2554 4.896 62.4714 5.184 63.5434 5.76C64.6154 6.32 65.4554 7.096 66.0634 8.088C66.6714 9.08 66.9754 10.232 66.9754 11.544C66.9754 12.824 66.6714 13.968 66.0634 14.976C65.4554 15.968 64.6154 16.752 63.5434 17.328C62.4714 17.904 61.2554 18.192 59.8954 18.192ZM59.8954 15.12C60.5194 15.12 61.0794 14.976 61.5754 14.688C62.0714 14.4 62.4634 13.992 62.7514 13.464C63.0394 12.92 63.1834 12.28 63.1834 11.544C63.1834 10.792 63.0394 10.152 62.7514 9.624C62.4634 9.096 62.0714 8.688 61.5754 8.4C61.0794 8.112 60.5194 7.968 59.8954 7.968C59.2714 7.968 58.7114 8.112 58.2154 8.4C57.7194 8.688 57.3194 9.096 57.0154 9.624C56.7274 10.152 56.5834 10.792 56.5834 11.544C56.5834 12.28 56.7274 12.92 57.0154 13.464C57.3194 13.992 57.7194 14.4 58.2154 14.688C58.7114 14.976 59.2714 15.12 59.8954 15.12ZM69.478 18V5.088H73.054V8.736L72.55 7.68C72.934 6.768 73.55 6.08 74.398 5.616C75.246 5.136 76.278 4.896 77.494 4.896V8.352C77.334 8.336 77.19 8.328 77.062 8.328C76.934 8.312 76.798 8.304 76.654 8.304C75.63 8.304 74.798 8.6 74.158 9.192C73.534 9.768 73.222 10.672 73.222 11.904V18H69.478ZM86.7964 18V15.48L86.5564 14.928V10.416C86.5564 9.616 86.3084 8.992 85.8124 8.544C85.3324 8.096 84.5884 7.872 83.5804 7.872C82.8924 7.872 82.2124 7.984 81.5404 8.208C80.8844 8.416 80.3244 8.704 79.8604 9.072L78.5164 6.456C79.2204 5.96 80.0684 5.576 81.0604 5.304C82.0524 5.032 83.0604 4.896 84.0844 4.896C86.0524 4.896 87.5804 5.36 88.6684 6.288C89.7564 7.216 90.3004 8.664 90.3004 10.632V18H86.7964ZM82.8604 18.192C81.8524 18.192 80.9884 18.024 80.2684 17.688C79.5484 17.336 78.9964 16.864 78.6124 16.272C78.2284 15.68 78.0364 15.016 78.0364 14.28C78.0364 13.512 78.2204 12.84 78.5884 12.264C78.9724 11.688 79.5724 11.24 80.3884 10.92C81.2044 10.584 82.2684 10.416 83.5804 10.416H87.0124V12.6H83.9884C83.1084 12.6 82.5004 12.744 82.1644 13.032C81.8444 13.32 81.6844 13.68 81.6844 14.112C81.6844 14.592 81.8684 14.976 82.2364 15.264C82.6204 15.536 83.1404 15.672 83.7964 15.672C84.4204 15.672 84.9804 15.528 85.4764 15.24C85.9724 14.936 86.3324 14.496 86.5564 13.92L87.1324 15.648C86.8604 16.48 86.3644 17.112 85.6444 17.544C84.9244 17.976 83.9964 18.192 82.8604 18.192Z" fill="white"/>
</svg>
