<svg width="75" height="9" viewBox="0 0 75 9" fill="none" xmlns="http://www.w3.org/2000/svg">
<path d="M0.738281 7V0.557617H5.08447V1.31787H1.59082V3.31299H4.61426V4.07324H1.59082V7H0.738281ZM5.80078 4.6665C5.80078 3.80225 6.04102 3.16211 6.52148 2.74609C6.92285 2.40039 7.41211 2.22754 7.98926 2.22754C8.63086 2.22754 9.15527 2.43848 9.5625 2.86035C9.96973 3.2793 10.1733 3.85938 10.1733 4.60059C10.1733 5.20117 10.0825 5.67432 9.90088 6.02002C9.72217 6.36279 9.45996 6.62939 9.11426 6.81982C8.77148 7.01025 8.39648 7.10547 7.98926 7.10547C7.33594 7.10547 6.80713 6.896 6.40283 6.47705C6.00146 6.05811 5.80078 5.45459 5.80078 4.6665ZM6.61377 4.6665C6.61377 5.26416 6.74414 5.7124 7.00488 6.01123C7.26562 6.30713 7.59375 6.45508 7.98926 6.45508C8.38184 6.45508 8.7085 6.30566 8.96924 6.00684C9.22998 5.70801 9.36035 5.25244 9.36035 4.64014C9.36035 4.06299 9.22852 3.62646 8.96484 3.33057C8.7041 3.03174 8.37891 2.88232 7.98926 2.88232C7.59375 2.88232 7.26562 3.03027 7.00488 3.32617C6.74414 3.62207 6.61377 4.06885 6.61377 4.6665ZM11.0962 7V2.33301H11.8081V3.04053C11.9897 2.70947 12.1567 2.49121 12.3091 2.38574C12.4644 2.28027 12.6343 2.22754 12.8188 2.22754C13.0854 2.22754 13.3564 2.3125 13.6318 2.48242L13.3594 3.21631C13.166 3.10205 12.9727 3.04492 12.7793 3.04492C12.6064 3.04492 12.4512 3.09766 12.3135 3.20312C12.1758 3.30566 12.0776 3.44922 12.019 3.63379C11.9312 3.91504 11.8872 4.22266 11.8872 4.55664V7H11.0962ZM13.957 7.38672L14.7261 7.50098C14.7583 7.73828 14.8477 7.91113 14.9941 8.01953C15.1904 8.16602 15.4585 8.23926 15.7983 8.23926C16.1646 8.23926 16.4473 8.16602 16.6465 8.01953C16.8457 7.87305 16.9805 7.66797 17.0508 7.4043C17.0918 7.24316 17.1108 6.90479 17.1079 6.38916C16.7622 6.79639 16.3315 7 15.8159 7C15.1743 7 14.6777 6.76855 14.3262 6.30566C13.9746 5.84277 13.7988 5.2876 13.7988 4.64014C13.7988 4.19482 13.8794 3.78467 14.0405 3.40967C14.2017 3.03174 14.4346 2.74023 14.7393 2.53516C15.0469 2.33008 15.4072 2.22754 15.8203 2.22754C16.3711 2.22754 16.8252 2.4502 17.1826 2.89551V2.33301H17.9121V6.36719C17.9121 7.09375 17.8374 7.60791 17.688 7.90967C17.5415 8.21436 17.3071 8.45459 16.9849 8.63037C16.6655 8.80615 16.2715 8.89404 15.8027 8.89404C15.2461 8.89404 14.7964 8.76807 14.4536 8.51611C14.1108 8.26709 13.9453 7.89062 13.957 7.38672ZM14.6118 4.58301C14.6118 5.19531 14.7334 5.64209 14.9766 5.92334C15.2197 6.20459 15.5244 6.34521 15.8906 6.34521C16.2539 6.34521 16.5586 6.20605 16.8047 5.92773C17.0508 5.64648 17.1738 5.20703 17.1738 4.60938C17.1738 4.03809 17.0464 3.60742 16.7915 3.31738C16.5396 3.02734 16.2349 2.88232 15.8774 2.88232C15.5259 2.88232 15.2271 3.02588 14.981 3.31299C14.7349 3.59717 14.6118 4.02051 14.6118 4.58301ZM22.3066 5.49707L23.124 5.59814C22.9951 6.07568 22.7563 6.44629 22.4077 6.70996C22.0591 6.97363 21.6138 7.10547 21.0718 7.10547C20.3892 7.10547 19.8472 6.896 19.4458 6.47705C19.0474 6.05518 18.8481 5.46484 18.8481 4.70605C18.8481 3.9209 19.0503 3.31152 19.4546 2.87793C19.8589 2.44434 20.3833 2.22754 21.0278 2.22754C21.6519 2.22754 22.1616 2.43994 22.5571 2.86475C22.9526 3.28955 23.1504 3.88721 23.1504 4.65771C23.1504 4.70459 23.1489 4.7749 23.146 4.86865H19.6655C19.6948 5.38135 19.8398 5.77393 20.1006 6.04639C20.3613 6.31885 20.6865 6.45508 21.0762 6.45508C21.3662 6.45508 21.6138 6.37891 21.8188 6.22656C22.0239 6.07422 22.1865 5.83105 22.3066 5.49707ZM19.7095 4.21826H22.3154C22.2803 3.82568 22.1807 3.53125 22.0166 3.33496C21.7646 3.03027 21.438 2.87793 21.0366 2.87793C20.6733 2.87793 20.3672 2.99951 20.1182 3.24268C19.8721 3.48584 19.7358 3.81104 19.7095 4.21826ZM25.8486 6.29248L25.9629 6.99121C25.7402 7.03809 25.541 7.06152 25.3652 7.06152C25.0781 7.06152 24.8555 7.01611 24.6973 6.92529C24.5391 6.83447 24.4277 6.71582 24.3633 6.56934C24.2988 6.41992 24.2666 6.10791 24.2666 5.6333V2.94824H23.6865V2.33301H24.2666V1.17725L25.0532 0.702637V2.33301H25.8486V2.94824H25.0532V5.67725C25.0532 5.90283 25.0664 6.04785 25.0928 6.1123C25.1221 6.17676 25.1675 6.22803 25.229 6.26611C25.2935 6.3042 25.3843 6.32324 25.5015 6.32324C25.5894 6.32324 25.7051 6.31299 25.8486 6.29248ZM29.1313 8.78857V2.33301H29.8521V2.93945C30.022 2.70215 30.2139 2.5249 30.4277 2.40771C30.6416 2.2876 30.9009 2.22754 31.2056 2.22754C31.604 2.22754 31.9556 2.33008 32.2603 2.53516C32.5649 2.74023 32.7949 3.03027 32.9502 3.40527C33.1055 3.77734 33.1831 4.18604 33.1831 4.63135C33.1831 5.10889 33.0967 5.53955 32.9238 5.92334C32.7539 6.3042 32.5049 6.59717 32.1768 6.80225C31.8516 7.00439 31.5088 7.10547 31.1484 7.10547C30.8848 7.10547 30.6475 7.0498 30.4365 6.93848C30.2285 6.82715 30.0571 6.68652 29.9224 6.5166V8.78857H29.1313ZM29.8477 4.69287C29.8477 5.29346 29.9692 5.7373 30.2124 6.02441C30.4556 6.31152 30.75 6.45508 31.0957 6.45508C31.4473 6.45508 31.7476 6.30713 31.9966 6.01123C32.2485 5.7124 32.3745 5.25098 32.3745 4.62695C32.3745 4.03223 32.2515 3.58691 32.0054 3.29102C31.7622 2.99512 31.4707 2.84717 31.1309 2.84717C30.7939 2.84717 30.4951 3.00537 30.2344 3.32178C29.9766 3.63525 29.8477 4.09229 29.8477 4.69287ZM37.1865 6.42432C36.8936 6.67334 36.6108 6.84912 36.3384 6.95166C36.0688 7.0542 35.7788 7.10547 35.4683 7.10547C34.9556 7.10547 34.5615 6.98096 34.2861 6.73193C34.0107 6.47998 33.873 6.15918 33.873 5.76953C33.873 5.54102 33.9243 5.33301 34.0269 5.14551C34.1323 4.95508 34.2686 4.80273 34.4355 4.68848C34.6055 4.57422 34.7959 4.48779 35.0068 4.4292C35.1621 4.38818 35.3965 4.34863 35.71 4.31055C36.3486 4.23438 36.8188 4.14355 37.1206 4.03809C37.1235 3.92969 37.125 3.86084 37.125 3.83154C37.125 3.50928 37.0503 3.28223 36.9009 3.15039C36.6987 2.97168 36.3984 2.88232 36 2.88232C35.6279 2.88232 35.3525 2.94824 35.1738 3.08008C34.998 3.20898 34.8677 3.43896 34.7827 3.77002L34.0093 3.66455C34.0796 3.3335 34.1953 3.06689 34.3564 2.86475C34.5176 2.65967 34.7505 2.50293 35.0552 2.39453C35.3599 2.2832 35.7129 2.22754 36.1143 2.22754C36.5127 2.22754 36.8364 2.27441 37.0854 2.36816C37.3345 2.46191 37.5176 2.58057 37.6348 2.72412C37.752 2.86475 37.834 3.04346 37.8809 3.26025C37.9072 3.39502 37.9204 3.63818 37.9204 3.98975V5.04443C37.9204 5.77979 37.9365 6.24561 37.9688 6.44189C38.0039 6.63525 38.0713 6.82129 38.1709 7H37.3447C37.2627 6.83594 37.21 6.64404 37.1865 6.42432ZM37.1206 4.65771C36.8335 4.7749 36.4028 4.87451 35.8286 4.95654C35.5034 5.00342 35.2734 5.05615 35.1387 5.11475C35.0039 5.17334 34.8999 5.25977 34.8267 5.37402C34.7534 5.48535 34.7168 5.60986 34.7168 5.74756C34.7168 5.9585 34.7959 6.13428 34.9541 6.2749C35.1152 6.41553 35.3496 6.48584 35.6572 6.48584C35.9619 6.48584 36.2329 6.41992 36.4702 6.28809C36.7075 6.15332 36.8818 5.97021 36.9932 5.73877C37.0781 5.56006 37.1206 5.29639 37.1206 4.94775V4.65771ZM38.8345 5.60693L39.6167 5.48389C39.6606 5.79736 39.7822 6.0376 39.9814 6.20459C40.1836 6.37158 40.4648 6.45508 40.8252 6.45508C41.1885 6.45508 41.458 6.38184 41.6338 6.23535C41.8096 6.08594 41.8975 5.91162 41.8975 5.7124C41.8975 5.53369 41.8198 5.39307 41.6646 5.29053C41.5562 5.22021 41.2866 5.13086 40.856 5.02246C40.2759 4.87598 39.873 4.75 39.6475 4.64453C39.4248 4.53613 39.2549 4.38818 39.1377 4.20068C39.0234 4.01025 38.9663 3.80078 38.9663 3.57227C38.9663 3.36426 39.0132 3.17236 39.1069 2.99658C39.2036 2.81787 39.334 2.66992 39.498 2.55273C39.6211 2.46191 39.7881 2.38574 39.999 2.32422C40.2129 2.25977 40.4414 2.22754 40.6846 2.22754C41.0508 2.22754 41.3716 2.28027 41.647 2.38574C41.9253 2.49121 42.1304 2.63477 42.2622 2.81641C42.394 2.99512 42.4849 3.23535 42.5347 3.53711L41.7612 3.64258C41.7261 3.40234 41.6235 3.21484 41.4536 3.08008C41.2866 2.94531 41.0493 2.87793 40.7417 2.87793C40.3784 2.87793 40.1191 2.93799 39.9639 3.05811C39.8086 3.17822 39.731 3.31885 39.731 3.47998C39.731 3.58252 39.7632 3.6748 39.8276 3.75684C39.8921 3.8418 39.9932 3.91211 40.1309 3.96777C40.21 3.99707 40.4429 4.06445 40.8296 4.16992C41.3892 4.31934 41.7788 4.44238 41.9985 4.53906C42.2212 4.63281 42.3955 4.77051 42.5215 4.95215C42.6475 5.13379 42.7104 5.35938 42.7104 5.62891C42.7104 5.89258 42.6328 6.1416 42.4775 6.37598C42.3252 6.60742 42.104 6.7876 41.814 6.9165C41.5239 7.04248 41.1958 7.10547 40.8296 7.10547C40.2231 7.10547 39.7603 6.97949 39.4409 6.72754C39.1245 6.47559 38.9224 6.10205 38.8345 5.60693ZM43.3345 5.60693L44.1167 5.48389C44.1606 5.79736 44.2822 6.0376 44.4814 6.20459C44.6836 6.37158 44.9648 6.45508 45.3252 6.45508C45.6885 6.45508 45.958 6.38184 46.1338 6.23535C46.3096 6.08594 46.3975 5.91162 46.3975 5.7124C46.3975 5.53369 46.3198 5.39307 46.1646 5.29053C46.0562 5.22021 45.7866 5.13086 45.356 5.02246C44.7759 4.87598 44.373 4.75 44.1475 4.64453C43.9248 4.53613 43.7549 4.38818 43.6377 4.20068C43.5234 4.01025 43.4663 3.80078 43.4663 3.57227C43.4663 3.36426 43.5132 3.17236 43.6069 2.99658C43.7036 2.81787 43.834 2.66992 43.998 2.55273C44.1211 2.46191 44.2881 2.38574 44.499 2.32422C44.7129 2.25977 44.9414 2.22754 45.1846 2.22754C45.5508 2.22754 45.8716 2.28027 46.147 2.38574C46.4253 2.49121 46.6304 2.63477 46.7622 2.81641C46.894 2.99512 46.9849 3.23535 47.0347 3.53711L46.2612 3.64258C46.2261 3.40234 46.1235 3.21484 45.9536 3.08008C45.7866 2.94531 45.5493 2.87793 45.2417 2.87793C44.8784 2.87793 44.6191 2.93799 44.4639 3.05811C44.3086 3.17822 44.231 3.31885 44.231 3.47998C44.231 3.58252 44.2632 3.6748 44.3276 3.75684C44.3921 3.8418 44.4932 3.91211 44.6309 3.96777C44.71 3.99707 44.9429 4.06445 45.3296 4.16992C45.8892 4.31934 46.2788 4.44238 46.4985 4.53906C46.7212 4.63281 46.8955 4.77051 47.0215 4.95215C47.1475 5.13379 47.2104 5.35938 47.2104 5.62891C47.2104 5.89258 47.1328 6.1416 46.9775 6.37598C46.8252 6.60742 46.604 6.7876 46.314 6.9165C46.0239 7.04248 45.6958 7.10547 45.3296 7.10547C44.7231 7.10547 44.2603 6.97949 43.9409 6.72754C43.6245 6.47559 43.4224 6.10205 43.3345 5.60693ZM49.0122 7L47.584 2.33301H48.4014L49.144 5.02686L49.4209 6.02881C49.4326 5.979 49.5132 5.6582 49.6626 5.06641L50.4053 2.33301H51.2183L51.917 5.04004L52.1499 5.93213L52.418 5.03125L53.2178 2.33301H53.9868L52.5278 7H51.7061L50.9634 4.20508L50.7832 3.40967L49.8384 7H49.0122ZM54.3604 4.6665C54.3604 3.80225 54.6006 3.16211 55.0811 2.74609C55.4824 2.40039 55.9717 2.22754 56.5488 2.22754C57.1904 2.22754 57.7148 2.43848 58.1221 2.86035C58.5293 3.2793 58.7329 3.85938 58.7329 4.60059C58.7329 5.20117 58.6421 5.67432 58.4604 6.02002C58.2817 6.36279 58.0195 6.62939 57.6738 6.81982C57.3311 7.01025 56.9561 7.10547 56.5488 7.10547C55.8955 7.10547 55.3667 6.896 54.9624 6.47705C54.561 6.05811 54.3604 5.45459 54.3604 4.6665ZM55.1733 4.6665C55.1733 5.26416 55.3037 5.7124 55.5645 6.01123C55.8252 6.30713 56.1533 6.45508 56.5488 6.45508C56.9414 6.45508 57.2681 6.30566 57.5288 6.00684C57.7896 5.70801 57.9199 5.25244 57.9199 4.64014C57.9199 4.06299 57.7881 3.62646 57.5244 3.33057C57.2637 3.03174 56.9385 2.88232 56.5488 2.88232C56.1533 2.88232 55.8252 3.03027 55.5645 3.32617C55.3037 3.62207 55.1733 4.06885 55.1733 4.6665ZM59.6558 7V2.33301H60.3677V3.04053C60.5493 2.70947 60.7163 2.49121 60.8687 2.38574C61.0239 2.28027 61.1938 2.22754 61.3784 2.22754C61.645 2.22754 61.916 2.3125 62.1914 2.48242L61.9189 3.21631C61.7256 3.10205 61.5322 3.04492 61.3389 3.04492C61.166 3.04492 61.0107 3.09766 60.873 3.20312C60.7354 3.30566 60.6372 3.44922 60.5786 3.63379C60.4907 3.91504 60.4468 4.22266 60.4468 4.55664V7H59.6558ZM65.6895 7V6.41113C65.3936 6.87402 64.9585 7.10547 64.3843 7.10547C64.0122 7.10547 63.6694 7.00293 63.356 6.79785C63.0454 6.59277 62.8037 6.30713 62.6309 5.94092C62.4609 5.57178 62.376 5.14844 62.376 4.6709C62.376 4.20508 62.4536 3.7832 62.6089 3.40527C62.7642 3.02441 62.9971 2.73291 63.3076 2.53076C63.6182 2.32861 63.9653 2.22754 64.3491 2.22754C64.6304 2.22754 64.8809 2.2876 65.1006 2.40771C65.3203 2.5249 65.499 2.67871 65.6367 2.86914V0.557617H66.4233V7H65.6895ZM63.189 4.6709C63.189 5.26855 63.3149 5.71533 63.5669 6.01123C63.8188 6.30713 64.1162 6.45508 64.459 6.45508C64.8047 6.45508 65.0977 6.31445 65.3379 6.0332C65.5811 5.74902 65.7026 5.31689 65.7026 4.73682C65.7026 4.09814 65.5796 3.62939 65.3335 3.33057C65.0874 3.03174 64.7842 2.88232 64.4238 2.88232C64.0723 2.88232 63.7778 3.02588 63.5405 3.31299C63.3062 3.6001 63.189 4.05273 63.189 4.6709ZM71.6572 5.41357C71.6543 5.30811 71.6528 5.229 71.6528 5.17627C71.6528 4.86572 71.6968 4.59766 71.7847 4.37207C71.8491 4.20215 71.9531 4.03076 72.0967 3.85791C72.2021 3.73193 72.3911 3.54883 72.6636 3.30859C72.939 3.06543 73.1177 2.87207 73.1997 2.72852C73.2817 2.58496 73.3228 2.42822 73.3228 2.2583C73.3228 1.95068 73.2026 1.68115 72.9624 1.44971C72.7222 1.21533 72.4277 1.09814 72.0791 1.09814C71.7422 1.09814 71.4609 1.20361 71.2354 1.41455C71.0098 1.62549 70.8618 1.95508 70.7915 2.40332L69.9785 2.30664C70.0518 1.70605 70.2686 1.24609 70.6289 0.926758C70.9922 0.607422 71.4712 0.447754 72.0659 0.447754C72.6958 0.447754 73.1982 0.619141 73.5732 0.961914C73.9482 1.30469 74.1357 1.71924 74.1357 2.20557C74.1357 2.48682 74.0698 2.74609 73.938 2.9834C73.8062 3.2207 73.5483 3.50928 73.1646 3.84912C72.9067 4.07764 72.7383 4.24609 72.6592 4.35449C72.5801 4.46289 72.5215 4.5874 72.4834 4.72803C72.4453 4.86865 72.4233 5.09717 72.4175 5.41357H71.6572ZM71.6089 7V6.09912H72.5098V7H71.6089Z" fill="#6C63FF"/>
</svg>
