<svg width="206" height="28" viewBox="0 0 206 28" fill="none" xmlns="http://www.w3.org/2000/svg">
<path d="M14.156 27.288C12.212 27.288 10.424 26.976 8.792 26.352C7.16 25.704 5.744 24.804 4.544 23.652C3.344 22.476 2.408 21.108 1.736 19.548C1.064 17.988 0.728 16.272 0.728 14.4C0.728 12.528 1.064 10.812 1.736 9.252C2.408 7.692 3.344 6.336 4.544 5.184C5.768 4.008 7.196 3.108 8.828 2.484C10.46 1.836 12.26 1.512 14.228 1.512C16.22 1.512 18.044 1.836 19.7 2.484C21.356 3.132 22.76 4.104 23.912 5.4L21.68 7.632C20.648 6.624 19.52 5.892 18.296 5.436C17.096 4.956 15.788 4.716 14.372 4.716C12.932 4.716 11.588 4.956 10.34 5.436C9.116 5.916 8.048 6.588 7.136 7.452C6.248 8.316 5.552 9.348 5.048 10.548C4.568 11.724 4.328 13.008 4.328 14.4C4.328 15.768 4.568 17.052 5.048 18.252C5.552 19.428 6.248 20.46 7.136 21.348C8.048 22.212 9.116 22.884 10.34 23.364C11.564 23.844 12.896 24.084 14.336 24.084C15.68 24.084 16.964 23.88 18.188 23.472C19.436 23.04 20.588 22.332 21.644 21.348L23.696 24.084C22.448 25.14 20.984 25.944 19.304 26.496C17.648 27.024 15.932 27.288 14.156 27.288ZM20.24 23.616V14.256H23.696V24.084L20.24 23.616ZM38.5806 27.216C36.5406 27.216 34.7406 26.796 33.1806 25.956C31.6446 25.116 30.4446 23.964 29.5806 22.5C28.7406 21.036 28.3206 19.356 28.3206 17.46C28.3206 15.564 28.7286 13.884 29.5446 12.42C30.3846 10.956 31.5246 9.816 32.9646 9C34.4286 8.16 36.0726 7.74 37.8966 7.74C39.7446 7.74 41.3766 8.148 42.7926 8.964C44.2086 9.78 45.3126 10.932 46.1046 12.42C46.9206 13.884 47.3286 15.6 47.3286 17.568C47.3286 17.712 47.3166 17.88 47.2926 18.072C47.2926 18.264 47.2806 18.444 47.2566 18.612H31.0206V16.128H45.4566L44.0526 16.992C44.0766 15.768 43.8246 14.676 43.2966 13.716C42.7686 12.756 42.0366 12.012 41.1006 11.484C40.1886 10.932 39.1206 10.656 37.8966 10.656C36.6966 10.656 35.6286 10.932 34.6926 11.484C33.7566 12.012 33.0246 12.768 32.4966 13.752C31.9686 14.712 31.7046 15.816 31.7046 17.064V17.64C31.7046 18.912 31.9926 20.052 32.5686 21.06C33.1686 22.044 33.9966 22.812 35.0526 23.364C36.1086 23.916 37.3206 24.192 38.6886 24.192C39.8166 24.192 40.8366 24 41.7486 23.616C42.6846 23.232 43.5006 22.656 44.1966 21.888L46.1046 24.12C45.2406 25.128 44.1606 25.896 42.8646 26.424C41.5926 26.952 40.1646 27.216 38.5806 27.216ZM58.6796 27.216C56.7596 27.216 55.2716 26.7 54.2156 25.668C53.1596 24.636 52.6316 23.16 52.6316 21.24V3.744H56.0876V21.096C56.0876 22.128 56.3396 22.92 56.8436 23.472C57.3716 24.024 58.1156 24.3 59.0756 24.3C60.1556 24.3 61.0556 24 61.7756 23.4L62.8556 25.884C62.3276 26.34 61.6916 26.676 60.9476 26.892C60.2276 27.108 59.4716 27.216 58.6796 27.216ZM49.3916 10.764V7.92H61.5596V10.764H49.3916ZM84.5498 27.288C82.6298 27.288 80.7938 27 79.0418 26.424C77.2898 25.824 75.9098 25.056 74.9018 24.12L76.2338 21.312C77.1938 22.152 78.4178 22.848 79.9058 23.4C81.3938 23.952 82.9418 24.228 84.5498 24.228C86.0138 24.228 87.2018 24.06 88.1138 23.724C89.0258 23.388 89.6978 22.932 90.1298 22.356C90.5618 21.756 90.7778 21.084 90.7778 20.34C90.7778 19.476 90.4898 18.78 89.9138 18.252C89.3618 17.724 88.6298 17.304 87.7178 16.992C86.8298 16.656 85.8458 16.368 84.7658 16.128C83.6858 15.888 82.5938 15.612 81.4898 15.3C80.4098 14.964 79.4138 14.544 78.5018 14.04C77.6138 13.536 76.8938 12.864 76.3418 12.024C75.7898 11.16 75.5138 10.056 75.5138 8.712C75.5138 7.416 75.8498 6.228 76.5218 5.148C77.2178 4.044 78.2738 3.168 79.6898 2.52C81.1298 1.848 82.9538 1.512 85.1618 1.512C86.6258 1.512 88.0778 1.704 89.5178 2.088C90.9578 2.472 92.2058 3.024 93.2618 3.744L92.0738 6.624C90.9938 5.904 89.8538 5.388 88.6538 5.076C87.4538 4.74 86.2898 4.572 85.1618 4.572C83.7458 4.572 82.5818 4.752 81.6698 5.112C80.7578 5.472 80.0858 5.952 79.6538 6.552C79.2458 7.152 79.0418 7.824 79.0418 8.568C79.0418 9.456 79.3178 10.164 79.8698 10.692C80.4458 11.22 81.1778 11.64 82.0658 11.952C82.9778 12.264 83.9738 12.552 85.0538 12.816C86.1338 13.056 87.2138 13.332 88.2938 13.644C89.3978 13.956 90.3938 14.364 91.2818 14.868C92.1938 15.372 92.9258 16.044 93.4778 16.884C94.0298 17.724 94.3058 18.804 94.3058 20.124C94.3058 21.396 93.9578 22.584 93.2618 23.688C92.5658 24.768 91.4858 25.644 90.0218 26.316C88.5818 26.964 86.7578 27.288 84.5498 27.288ZM105.613 27.216C103.693 27.216 102.205 26.7 101.149 25.668C100.093 24.636 99.5652 23.16 99.5652 21.24V3.744H103.021V21.096C103.021 22.128 103.273 22.92 103.777 23.472C104.305 24.024 105.049 24.3 106.009 24.3C107.089 24.3 107.989 24 108.709 23.4L109.789 25.884C109.261 26.34 108.625 26.676 107.881 26.892C107.161 27.108 106.405 27.216 105.613 27.216ZM96.3252 10.764V7.92H108.493V10.764H96.3252ZM125.811 27V22.968L125.631 22.212V15.336C125.631 13.872 125.199 12.744 124.335 11.952C123.495 11.136 122.223 10.728 120.519 10.728C119.391 10.728 118.287 10.92 117.207 11.304C116.127 11.664 115.215 12.156 114.471 12.78L113.031 10.188C114.015 9.396 115.191 8.796 116.559 8.388C117.951 7.956 119.403 7.74 120.915 7.74C123.531 7.74 125.547 8.376 126.963 9.648C128.379 10.92 129.087 12.864 129.087 15.48V27H125.811ZM119.547 27.216C118.131 27.216 116.883 26.976 115.803 26.496C114.747 26.016 113.931 25.356 113.355 24.516C112.779 23.652 112.491 22.68 112.491 21.6C112.491 20.568 112.731 19.632 113.211 18.792C113.715 17.952 114.519 17.28 115.623 16.776C116.751 16.272 118.263 16.02 120.159 16.02H126.207V18.504H120.303C118.575 18.504 117.411 18.792 116.811 19.368C116.211 19.944 115.911 20.64 115.911 21.456C115.911 22.392 116.283 23.148 117.027 23.724C117.771 24.276 118.803 24.552 120.123 24.552C121.419 24.552 122.547 24.264 123.507 23.688C124.491 23.112 125.199 22.272 125.631 21.168L126.315 23.544C125.859 24.672 125.055 25.572 123.903 26.244C122.751 26.892 121.299 27.216 119.547 27.216ZM135.483 27V7.92H138.795V13.104L138.471 11.808C138.999 10.488 139.887 9.48 141.135 8.784C142.383 8.088 143.919 7.74 145.743 7.74V11.088C145.599 11.064 145.455 11.052 145.311 11.052C145.191 11.052 145.071 11.052 144.951 11.052C143.103 11.052 141.639 11.604 140.559 12.708C139.479 13.812 138.939 15.408 138.939 17.496V27H135.483ZM157.328 27.216C155.408 27.216 153.92 26.7 152.864 25.668C151.808 24.636 151.28 23.16 151.28 21.24V3.744H154.736V21.096C154.736 22.128 154.988 22.92 155.492 23.472C156.02 24.024 156.764 24.3 157.724 24.3C158.804 24.3 159.704 24 160.424 23.4L161.504 25.884C160.976 26.34 160.34 26.676 159.596 26.892C158.876 27.108 158.12 27.216 157.328 27.216ZM148.04 10.764V7.92H160.208V10.764H148.04ZM173.545 27.216C171.505 27.216 169.705 26.796 168.145 25.956C166.609 25.116 165.409 23.964 164.545 22.5C163.705 21.036 163.285 19.356 163.285 17.46C163.285 15.564 163.693 13.884 164.509 12.42C165.349 10.956 166.489 9.816 167.929 9C169.393 8.16 171.037 7.74 172.861 7.74C174.709 7.74 176.341 8.148 177.757 8.964C179.173 9.78 180.277 10.932 181.069 12.42C181.885 13.884 182.293 15.6 182.293 17.568C182.293 17.712 182.281 17.88 182.257 18.072C182.257 18.264 182.245 18.444 182.221 18.612H165.985V16.128H180.421L179.017 16.992C179.041 15.768 178.789 14.676 178.261 13.716C177.733 12.756 177.001 12.012 176.065 11.484C175.153 10.932 174.085 10.656 172.861 10.656C171.661 10.656 170.593 10.932 169.657 11.484C168.721 12.012 167.989 12.768 167.461 13.752C166.933 14.712 166.669 15.816 166.669 17.064V17.64C166.669 18.912 166.957 20.052 167.533 21.06C168.133 22.044 168.961 22.812 170.017 23.364C171.073 23.916 172.285 24.192 173.653 24.192C174.781 24.192 175.801 24 176.713 23.616C177.649 23.232 178.465 22.656 179.161 21.888L181.069 24.12C180.205 25.128 179.125 25.896 177.829 26.424C176.557 26.952 175.129 27.216 173.545 27.216ZM194.976 27.216C193.128 27.216 191.472 26.808 190.008 25.992C188.568 25.176 187.428 24.036 186.588 22.572C185.748 21.108 185.328 19.404 185.328 17.46C185.328 15.516 185.748 13.824 186.588 12.384C187.428 10.92 188.568 9.78 190.008 8.964C191.472 8.148 193.128 7.74 194.976 7.74C196.584 7.74 198.036 8.1 199.332 8.82C200.628 9.54 201.66 10.62 202.428 12.06C203.22 13.5 203.616 15.3 203.616 17.46C203.616 19.62 203.232 21.42 202.464 22.86C201.72 24.3 200.7 25.392 199.404 26.136C198.108 26.856 196.632 27.216 194.976 27.216ZM195.264 24.192C196.464 24.192 197.544 23.916 198.504 23.364C199.488 22.812 200.256 22.032 200.808 21.024C201.384 19.992 201.672 18.804 201.672 17.46C201.672 16.092 201.384 14.916 200.808 13.932C200.256 12.924 199.488 12.144 198.504 11.592C197.544 11.04 196.464 10.764 195.264 10.764C194.04 10.764 192.948 11.04 191.988 11.592C191.028 12.144 190.26 12.924 189.684 13.932C189.108 14.916 188.82 16.092 188.82 17.46C188.82 18.804 189.108 19.992 189.684 21.024C190.26 22.032 191.028 22.812 191.988 23.364C192.948 23.916 194.04 24.192 195.264 24.192ZM201.78 27V21.852L201.996 17.424L201.636 12.996V0.287998H205.092V27H201.78Z" fill="#252525"/>
</svg>
