<svg width="300" height="50" viewBox="0 0 300 50" fill="none" xmlns="http://www.w3.org/2000/svg">
<rect width="300" height="50" rx="10" fill="#6C63FF"/>
<path d="M126.88 33V19H129.02L137.8 29.78H136.74V19H139.32V33H137.18L128.4 22.22H129.46V33H126.88ZM147.851 33.14C146.665 33.14 145.625 32.9067 144.731 32.44C143.851 31.96 143.165 31.3067 142.671 30.48C142.191 29.6533 141.951 28.7133 141.951 27.66C141.951 26.5933 142.185 25.6533 142.651 24.84C143.131 24.0133 143.785 23.3667 144.611 22.9C145.451 22.4333 146.405 22.2 147.471 22.2C148.511 22.2 149.438 22.4267 150.251 22.88C151.065 23.3333 151.705 23.9733 152.171 24.8C152.638 25.6267 152.871 26.6 152.871 27.72C152.871 27.8267 152.865 27.9467 152.851 28.08C152.851 28.2133 152.845 28.34 152.831 28.46H143.931V26.8H151.511L150.531 27.32C150.545 26.7067 150.418 26.1667 150.151 25.7C149.885 25.2333 149.518 24.8667 149.051 24.6C148.598 24.3333 148.071 24.2 147.471 24.2C146.858 24.2 146.318 24.3333 145.851 24.6C145.398 24.8667 145.038 25.24 144.771 25.72C144.518 26.1867 144.391 26.74 144.391 27.38V27.78C144.391 28.42 144.538 28.9867 144.831 29.48C145.125 29.9733 145.538 30.3533 146.071 30.62C146.605 30.8867 147.218 31.02 147.911 31.02C148.511 31.02 149.051 30.9267 149.531 30.74C150.011 30.5533 150.438 30.26 150.811 29.86L152.151 31.4C151.671 31.96 151.065 32.3933 150.331 32.7C149.611 32.9933 148.785 33.14 147.851 33.14ZM153.52 33L158.22 26.88L158.18 28.22L153.7 22.32H156.48L159.62 26.52H158.56L161.72 22.32H164.42L159.9 28.22L159.92 26.88L164.6 33H161.78L158.48 28.54L159.52 28.68L156.28 33H153.52ZM170.465 33.14C169.291 33.14 168.385 32.84 167.745 32.24C167.105 31.6267 166.785 30.7267 166.785 29.54V19.96H169.285V29.48C169.285 29.9867 169.411 30.38 169.665 30.66C169.931 30.94 170.298 31.08 170.765 31.08C171.325 31.08 171.791 30.9333 172.165 30.64L172.865 32.42C172.571 32.66 172.211 32.84 171.785 32.96C171.358 33.08 170.918 33.14 170.465 33.14ZM165.025 24.4V22.4H172.145V24.4H165.025Z" fill="#FCFCFC"/>
<path d="M185 33L191 27L185 21" stroke="white" stroke-width="2" stroke-linecap="round" stroke-linejoin="round"/>
</svg>
