<svg width="191" height="14" viewBox="0 0 191 14" fill="none" xmlns="http://www.w3.org/2000/svg">
<path d="M0.365 11V1.9H1.431L7.45 9.375H6.891V1.9H8.191V11H7.125L1.106 3.525H1.665V11H0.365ZM13.8008 11.078C13.0641 11.078 12.4141 10.9263 11.8508 10.623C11.2961 10.3197 10.8628 9.90367 10.5508 9.375C10.2475 8.84633 10.0958 8.23967 10.0958 7.555C10.0958 6.87033 10.2431 6.26367 10.5378 5.735C10.8411 5.20633 11.2528 4.79467 11.7728 4.5C12.3015 4.19667 12.8951 4.045 13.5538 4.045C14.2211 4.045 14.8105 4.19233 15.3218 4.487C15.8331 4.78167 16.2318 5.19767 16.5178 5.735C16.8125 6.26367 16.9598 6.88333 16.9598 7.594C16.9598 7.646 16.9555 7.70667 16.9468 7.776C16.9468 7.84533 16.9425 7.91033 16.9338 7.971H11.0708V7.074H16.2838L15.7768 7.386C15.7855 6.944 15.6945 6.54967 15.5038 6.203C15.3131 5.85633 15.0488 5.58767 14.7108 5.397C14.3815 5.19767 13.9958 5.098 13.5538 5.098C13.1205 5.098 12.7348 5.19767 12.3968 5.397C12.0588 5.58767 11.7945 5.86067 11.6038 6.216C11.4131 6.56267 11.3178 6.96133 11.3178 7.412V7.62C11.3178 8.07933 11.4218 8.491 11.6298 8.855C11.8465 9.21033 12.1455 9.48767 12.5268 9.687C12.9081 9.88633 13.3458 9.986 13.8398 9.986C14.2471 9.986 14.6155 9.91667 14.9448 9.778C15.2828 9.63933 15.5775 9.43133 15.8288 9.154L16.5178 9.96C16.2058 10.324 15.8158 10.6013 15.3478 10.792C14.8885 10.9827 14.3728 11.078 13.8008 11.078ZM20.0218 11L17.4608 4.11H18.6438L20.9188 10.35H20.3598L22.7258 4.11H23.7788L26.0928 10.35H25.5468L27.8738 4.11H28.9918L26.4178 11H25.2218L23.0508 5.306H23.4148L21.2178 11H20.0218ZM33.9314 11V1.9H34.9974L39.0794 8.777H38.5074L42.5374 1.9H43.6034L43.6164 11H42.3684L42.3554 3.863H42.6544L39.0664 9.895H38.4684L34.8544 3.863H35.1794V11H33.9314ZM49.2334 11.078C48.4968 11.078 47.8468 10.9263 47.2834 10.623C46.7288 10.3197 46.2954 9.90367 45.9834 9.375C45.6801 8.84633 45.5284 8.23967 45.5284 7.555C45.5284 6.87033 45.6758 6.26367 45.9704 5.735C46.2738 5.20633 46.6854 4.79467 47.2054 4.5C47.7341 4.19667 48.3278 4.045 48.9864 4.045C49.6538 4.045 50.2431 4.19233 50.7544 4.487C51.2658 4.78167 51.6644 5.19767 51.9504 5.735C52.2451 6.26367 52.3924 6.88333 52.3924 7.594C52.3924 7.646 52.3881 7.70667 52.3794 7.776C52.3794 7.84533 52.3751 7.91033 52.3664 7.971H46.5034V7.074H51.7164L51.2094 7.386C51.2181 6.944 51.1271 6.54967 50.9364 6.203C50.7458 5.85633 50.4814 5.58767 50.1434 5.397C49.8141 5.19767 49.4284 5.098 48.9864 5.098C48.5531 5.098 48.1674 5.19767 47.8294 5.397C47.4914 5.58767 47.2271 5.86067 47.0364 6.216C46.8458 6.56267 46.7504 6.96133 46.7504 7.412V7.62C46.7504 8.07933 46.8544 8.491 47.0624 8.855C47.2791 9.21033 47.5781 9.48767 47.9594 9.687C48.3408 9.88633 48.7784 9.986 49.2724 9.986C49.6798 9.986 50.0481 9.91667 50.3774 9.778C50.7154 9.63933 51.0101 9.43133 51.2614 9.154L51.9504 9.96C51.6384 10.324 51.2484 10.6013 50.7804 10.792C50.3211 10.9827 49.8054 11.078 49.2334 11.078ZM62.7444 4.045C63.299 4.045 63.7887 4.15333 64.2134 4.37C64.6381 4.58667 64.9674 4.916 65.2014 5.358C65.4441 5.8 65.5654 6.359 65.5654 7.035V11H64.3174V7.178C64.3174 6.51067 64.1614 6.008 63.8494 5.67C63.5374 5.332 63.0997 5.163 62.5364 5.163C62.1204 5.163 61.7564 5.24967 61.4444 5.423C61.1324 5.59633 60.8897 5.852 60.7164 6.19C60.5517 6.528 60.4694 6.94833 60.4694 7.451V11H59.2214V7.178C59.2214 6.51067 59.0654 6.008 58.7534 5.67C58.45 5.332 58.0124 5.163 57.4404 5.163C57.033 5.163 56.6734 5.24967 56.3614 5.423C56.0494 5.59633 55.8067 5.852 55.6334 6.19C55.46 6.528 55.3734 6.94833 55.3734 7.451V11H54.1254V4.11H55.3214V5.943L55.1264 5.475C55.343 5.02433 55.6767 4.67333 56.1274 4.422C56.578 4.17067 57.1024 4.045 57.7004 4.045C58.359 4.045 58.9267 4.20967 59.4034 4.539C59.88 4.85967 60.192 5.34933 60.3394 6.008L59.8324 5.8C60.0404 5.27133 60.4044 4.84667 60.9244 4.526C61.4444 4.20533 62.051 4.045 62.7444 4.045ZM71.5147 11.078C70.9254 11.078 70.3924 10.948 69.9157 10.688C69.4477 10.4193 69.075 10.025 68.7977 9.505C68.529 8.985 68.3947 8.335 68.3947 7.555C68.3947 6.775 68.5334 6.125 68.8107 5.605C69.0967 5.085 69.4737 4.695 69.9417 4.435C70.4184 4.175 70.9427 4.045 71.5147 4.045C72.1907 4.045 72.7887 4.19233 73.3087 4.487C73.8287 4.78167 74.2404 5.19333 74.5437 5.722C74.847 6.242 74.9987 6.853 74.9987 7.555C74.9987 8.257 74.847 8.87233 74.5437 9.401C74.2404 9.92967 73.8287 10.3413 73.3087 10.636C72.7887 10.9307 72.1907 11.078 71.5147 11.078ZM67.8617 11V1.354H69.1097V5.943L68.9797 7.542L69.0577 9.141V11H67.8617ZM71.4107 9.986C71.8527 9.986 72.247 9.88633 72.5937 9.687C72.949 9.48767 73.2264 9.206 73.4257 8.842C73.6337 8.46933 73.7377 8.04033 73.7377 7.555C73.7377 7.061 73.6337 6.63633 73.4257 6.281C73.2264 5.917 72.949 5.63533 72.5937 5.436C72.247 5.23667 71.8527 5.137 71.4107 5.137C70.9774 5.137 70.583 5.23667 70.2277 5.436C69.881 5.63533 69.6037 5.917 69.3957 6.281C69.1964 6.63633 69.0967 7.061 69.0967 7.555C69.0967 8.04033 69.1964 8.46933 69.3957 8.842C69.6037 9.206 69.881 9.48767 70.2277 9.687C70.583 9.88633 70.9774 9.986 71.4107 9.986ZM79.791 11.078C79.0544 11.078 78.4044 10.9263 77.841 10.623C77.2864 10.3197 76.853 9.90367 76.541 9.375C76.2377 8.84633 76.086 8.23967 76.086 7.555C76.086 6.87033 76.2334 6.26367 76.528 5.735C76.8314 5.20633 77.243 4.79467 77.763 4.5C78.2917 4.19667 78.8854 4.045 79.544 4.045C80.2114 4.045 80.8007 4.19233 81.312 4.487C81.8234 4.78167 82.222 5.19767 82.508 5.735C82.8027 6.26367 82.95 6.88333 82.95 7.594C82.95 7.646 82.9457 7.70667 82.937 7.776C82.937 7.84533 82.9327 7.91033 82.924 7.971H77.061V7.074H82.274L81.767 7.386C81.7757 6.944 81.6847 6.54967 81.494 6.203C81.3034 5.85633 81.039 5.58767 80.701 5.397C80.3717 5.19767 79.986 5.098 79.544 5.098C79.1107 5.098 78.725 5.19767 78.387 5.397C78.049 5.58767 77.7847 5.86067 77.594 6.216C77.4034 6.56267 77.308 6.96133 77.308 7.412V7.62C77.308 8.07933 77.412 8.491 77.62 8.855C77.8367 9.21033 78.1357 9.48767 78.517 9.687C78.8984 9.88633 79.336 9.986 79.83 9.986C80.2374 9.986 80.6057 9.91667 80.935 9.778C81.273 9.63933 81.5677 9.43133 81.819 9.154L82.508 9.96C82.196 10.324 81.806 10.6013 81.338 10.792C80.8787 10.9827 80.363 11.078 79.791 11.078ZM84.683 11V4.11H85.879V5.982L85.762 5.514C85.9527 5.03733 86.2733 4.67333 86.724 4.422C87.1747 4.17067 87.7293 4.045 88.388 4.045V5.254C88.336 5.24533 88.284 5.241 88.232 5.241C88.1887 5.241 88.1453 5.241 88.102 5.241C87.4347 5.241 86.906 5.44033 86.516 5.839C86.126 6.23767 85.931 6.814 85.931 7.568V11H84.683ZM91.8976 8.127C91.8976 7.789 91.9539 7.49433 92.0666 7.243C92.1793 6.99167 92.3179 6.76633 92.4826 6.567C92.6559 6.36767 92.8423 6.18567 93.0416 6.021C93.2409 5.84767 93.4273 5.67867 93.6006 5.514C93.7739 5.34067 93.9126 5.15867 94.0166 4.968C94.1293 4.77733 94.1856 4.55633 94.1856 4.305C94.1856 3.889 94.0209 3.551 93.6916 3.291C93.3623 3.031 92.9073 2.901 92.3266 2.901C91.8066 2.901 91.3559 2.98767 90.9746 3.161C90.5933 3.33433 90.2683 3.59 89.9996 3.928L89.0506 3.252C89.4146 2.79267 89.8783 2.43733 90.4416 2.186C91.0049 1.926 91.6636 1.796 92.4176 1.796C93.0416 1.796 93.5833 1.89133 94.0426 2.082C94.5019 2.264 94.8573 2.52833 95.1086 2.875C95.3686 3.213 95.4986 3.62467 95.4986 4.11C95.4986 4.474 95.4423 4.786 95.3296 5.046C95.2169 5.306 95.0739 5.53567 94.9006 5.735C94.7273 5.93433 94.5409 6.12067 94.3416 6.294C94.1509 6.46733 93.9689 6.64067 93.7956 6.814C93.6223 6.98733 93.4793 7.178 93.3666 7.386C93.2539 7.594 93.1976 7.841 93.1976 8.127H91.8976ZM92.5606 11.078C92.3179 11.078 92.1143 10.9957 91.9496 10.831C91.7936 10.6663 91.7156 10.4713 91.7156 10.246C91.7156 10.0033 91.7936 9.804 91.9496 9.648C92.1143 9.492 92.3179 9.414 92.5606 9.414C92.8033 9.414 93.0026 9.492 93.1586 9.648C93.3146 9.804 93.3926 10.0033 93.3926 10.246C93.3926 10.4713 93.3146 10.6663 93.1586 10.831C93.0026 10.9957 92.8033 11.078 92.5606 11.078Z" fill="#252525"/>
<path d="M101.146 11V1.9H105.085C105.9 1.9 106.602 2.03433 107.191 2.303C107.781 2.563 108.236 2.94 108.556 3.434C108.877 3.928 109.037 4.51733 109.037 5.202C109.037 5.878 108.877 6.463 108.556 6.957C108.236 7.44233 107.781 7.815 107.191 8.075C106.602 8.335 105.9 8.465 105.085 8.465H102.316L103.252 7.542V11H101.146ZM106.931 11L104.656 7.698H106.905L109.206 11H106.931ZM103.252 7.776L102.316 6.788H104.968C105.618 6.788 106.104 6.64933 106.424 6.372C106.745 6.086 106.905 5.696 106.905 5.202C106.905 4.69933 106.745 4.30933 106.424 4.032C106.104 3.75467 105.618 3.616 104.968 3.616H102.316L103.252 2.615V7.776ZM114.034 11.104C113.237 11.104 112.535 10.948 111.928 10.636C111.33 10.324 110.866 9.89933 110.537 9.362C110.208 8.816 110.043 8.19633 110.043 7.503C110.043 6.801 110.203 6.18133 110.524 5.644C110.853 5.098 111.3 4.67333 111.863 4.37C112.426 4.058 113.063 3.902 113.774 3.902C114.459 3.902 115.074 4.04933 115.62 4.344C116.175 4.63 116.612 5.046 116.933 5.592C117.254 6.12933 117.414 6.775 117.414 7.529C117.414 7.607 117.41 7.698 117.401 7.802C117.392 7.89733 117.384 7.98833 117.375 8.075H111.694V6.892H116.309L115.529 7.243C115.529 6.879 115.455 6.56267 115.308 6.294C115.161 6.02533 114.957 5.81733 114.697 5.67C114.437 5.514 114.134 5.436 113.787 5.436C113.44 5.436 113.133 5.514 112.864 5.67C112.604 5.81733 112.4 6.02967 112.253 6.307C112.106 6.57567 112.032 6.89633 112.032 7.269V7.581C112.032 7.96233 112.114 8.30033 112.279 8.595C112.452 8.881 112.691 9.102 112.994 9.258C113.306 9.40533 113.67 9.479 114.086 9.479C114.459 9.479 114.784 9.42267 115.061 9.31C115.347 9.19733 115.607 9.02833 115.841 8.803L116.92 9.973C116.599 10.337 116.196 10.6187 115.711 10.818C115.226 11.0087 114.667 11.104 114.034 11.104ZM122.053 13.626C121.394 13.626 120.757 13.5437 120.142 13.379C119.535 13.223 119.028 12.9847 118.621 12.664L119.427 11.208C119.722 11.4507 120.094 11.6413 120.545 11.78C121.004 11.9273 121.455 12.001 121.897 12.001C122.616 12.001 123.136 11.8407 123.457 11.52C123.786 11.1993 123.951 10.7227 123.951 10.09V9.037L124.081 7.282L124.055 5.514V4.006H125.979V9.83C125.979 11.13 125.641 12.0877 124.965 12.703C124.289 13.3183 123.318 13.626 122.053 13.626ZM121.741 10.662C121.091 10.662 120.502 10.5233 119.973 10.246C119.453 9.96 119.033 9.56567 118.712 9.063C118.4 8.55167 118.244 7.958 118.244 7.282C118.244 6.59733 118.4 6.00367 118.712 5.501C119.033 4.98967 119.453 4.59533 119.973 4.318C120.502 4.04067 121.091 3.902 121.741 3.902C122.33 3.902 122.85 4.02333 123.301 4.266C123.752 4.5 124.103 4.86833 124.354 5.371C124.605 5.865 124.731 6.502 124.731 7.282C124.731 8.05333 124.605 8.69033 124.354 9.193C124.103 9.687 123.752 10.0553 123.301 10.298C122.85 10.5407 122.33 10.662 121.741 10.662ZM122.144 8.998C122.499 8.998 122.816 8.92867 123.093 8.79C123.37 8.64267 123.587 8.439 123.743 8.179C123.899 7.919 123.977 7.62 123.977 7.282C123.977 6.93533 123.899 6.63633 123.743 6.385C123.587 6.125 123.37 5.92567 123.093 5.787C122.816 5.63967 122.499 5.566 122.144 5.566C121.789 5.566 121.472 5.63967 121.195 5.787C120.918 5.92567 120.697 6.125 120.532 6.385C120.376 6.63633 120.298 6.93533 120.298 7.282C120.298 7.62 120.376 7.919 120.532 8.179C120.697 8.439 120.918 8.64267 121.195 8.79C121.472 8.92867 121.789 8.998 122.144 8.998ZM127.867 11V4.006H129.895V11H127.867ZM128.881 3.031C128.508 3.031 128.205 2.92267 127.971 2.706C127.737 2.48933 127.62 2.22067 127.62 1.9C127.62 1.57933 127.737 1.31067 127.971 1.094C128.205 0.877333 128.508 0.768999 128.881 0.768999C129.253 0.768999 129.557 0.872999 129.791 1.081C130.025 1.28033 130.142 1.54033 130.142 1.861C130.142 2.199 130.025 2.48067 129.791 2.706C129.565 2.92267 129.262 3.031 128.881 3.031ZM134.13 11.104C133.532 11.104 132.955 11.0347 132.401 10.896C131.855 10.7487 131.421 10.5667 131.101 10.35L131.777 8.894C132.097 9.09333 132.474 9.258 132.908 9.388C133.35 9.50933 133.783 9.57 134.208 9.57C134.676 9.57 135.005 9.51367 135.196 9.401C135.395 9.28833 135.495 9.13233 135.495 8.933C135.495 8.76833 135.417 8.647 135.261 8.569C135.113 8.48233 134.914 8.41733 134.663 8.374C134.411 8.33067 134.134 8.28733 133.831 8.244C133.536 8.20067 133.237 8.14433 132.934 8.075C132.63 7.997 132.353 7.88433 132.102 7.737C131.85 7.58967 131.647 7.39033 131.491 7.139C131.343 6.88767 131.27 6.56267 131.27 6.164C131.27 5.722 131.395 5.332 131.647 4.994C131.907 4.656 132.279 4.39167 132.765 4.201C133.25 4.00167 133.831 3.902 134.507 3.902C134.983 3.902 135.469 3.954 135.963 4.058C136.457 4.162 136.868 4.31367 137.198 4.513L136.522 5.956C136.184 5.75667 135.841 5.62233 135.495 5.553C135.157 5.475 134.827 5.436 134.507 5.436C134.056 5.436 133.727 5.49667 133.519 5.618C133.311 5.73933 133.207 5.89533 133.207 6.086C133.207 6.25933 133.28 6.38933 133.428 6.476C133.584 6.56267 133.787 6.632 134.039 6.684C134.29 6.736 134.563 6.78367 134.858 6.827C135.161 6.86167 135.464 6.918 135.768 6.996C136.071 7.074 136.344 7.18667 136.587 7.334C136.838 7.47267 137.042 7.66767 137.198 7.919C137.354 8.16167 137.432 8.48233 137.432 8.881C137.432 9.31433 137.302 9.7 137.042 10.038C136.782 10.3673 136.405 10.6273 135.911 10.818C135.425 11.0087 134.832 11.104 134.13 11.104ZM141.543 11.104C140.72 11.104 140.078 10.896 139.619 10.48C139.16 10.0553 138.93 9.427 138.93 8.595V2.459H140.958V8.569C140.958 8.86367 141.036 9.09333 141.192 9.258C141.348 9.414 141.56 9.492 141.829 9.492C142.15 9.492 142.423 9.40533 142.648 9.232L143.194 10.662C142.986 10.8093 142.735 10.922 142.44 11C142.154 11.0693 141.855 11.104 141.543 11.104ZM137.851 5.722V4.162H142.7V5.722H137.851ZM147.588 11.104C146.79 11.104 146.088 10.948 145.482 10.636C144.884 10.324 144.42 9.89933 144.091 9.362C143.761 8.816 143.597 8.19633 143.597 7.503C143.597 6.801 143.757 6.18133 144.078 5.644C144.407 5.098 144.853 4.67333 145.417 4.37C145.98 4.058 146.617 3.902 147.328 3.902C148.012 3.902 148.628 4.04933 149.174 4.344C149.728 4.63 150.166 5.046 150.487 5.592C150.807 6.12933 150.968 6.775 150.968 7.529C150.968 7.607 150.963 7.698 150.955 7.802C150.946 7.89733 150.937 7.98833 150.929 8.075H145.248V6.892H149.863L149.083 7.243C149.083 6.879 149.009 6.56267 148.862 6.294C148.714 6.02533 148.511 5.81733 148.251 5.67C147.991 5.514 147.687 5.436 147.341 5.436C146.994 5.436 146.686 5.514 146.418 5.67C146.158 5.81733 145.954 6.02967 145.807 6.307C145.659 6.57567 145.586 6.89633 145.586 7.269V7.581C145.586 7.96233 145.668 8.30033 145.833 8.595C146.006 8.881 146.244 9.102 146.548 9.258C146.86 9.40533 147.224 9.479 147.64 9.479C148.012 9.479 148.337 9.42267 148.615 9.31C148.901 9.19733 149.161 9.02833 149.395 8.803L150.474 9.973C150.153 10.337 149.75 10.6187 149.265 10.818C148.779 11.0087 148.22 11.104 147.588 11.104ZM152.318 11V4.006H154.255V5.982L153.982 5.41C154.19 4.916 154.524 4.54333 154.983 4.292C155.442 4.032 156.001 3.902 156.66 3.902V5.774C156.573 5.76533 156.495 5.761 156.426 5.761C156.357 5.75233 156.283 5.748 156.205 5.748C155.65 5.748 155.2 5.90833 154.853 6.229C154.515 6.541 154.346 7.03067 154.346 7.698V11H152.318ZM165.849 3.902C166.404 3.902 166.898 4.01467 167.331 4.24C167.773 4.45667 168.12 4.79467 168.371 5.254C168.622 5.70467 168.748 6.28533 168.748 6.996V11H166.72V7.308C166.72 6.74467 166.594 6.32867 166.343 6.06C166.1 5.79133 165.754 5.657 165.303 5.657C164.982 5.657 164.692 5.72633 164.432 5.865C164.181 5.995 163.981 6.19867 163.834 6.476C163.695 6.75333 163.626 7.10867 163.626 7.542V11H161.598V4.006H163.535V5.943L163.171 5.358C163.422 4.89 163.782 4.53033 164.25 4.279C164.718 4.02767 165.251 3.902 165.849 3.902ZM173.965 11.104C173.22 11.104 172.557 10.948 171.976 10.636C171.404 10.324 170.949 9.89933 170.611 9.362C170.282 8.816 170.117 8.19633 170.117 7.503C170.117 6.801 170.282 6.18133 170.611 5.644C170.949 5.098 171.404 4.67333 171.976 4.37C172.557 4.058 173.22 3.902 173.965 3.902C174.702 3.902 175.361 4.058 175.941 4.37C176.522 4.67333 176.977 5.09367 177.306 5.631C177.636 6.16833 177.8 6.79233 177.8 7.503C177.8 8.19633 177.636 8.816 177.306 9.362C176.977 9.89933 176.522 10.324 175.941 10.636C175.361 10.948 174.702 11.104 173.965 11.104ZM173.965 9.44C174.303 9.44 174.607 9.362 174.875 9.206C175.144 9.05 175.356 8.829 175.512 8.543C175.668 8.24833 175.746 7.90167 175.746 7.503C175.746 7.09567 175.668 6.749 175.512 6.463C175.356 6.177 175.144 5.956 174.875 5.8C174.607 5.644 174.303 5.566 173.965 5.566C173.627 5.566 173.324 5.644 173.055 5.8C172.787 5.956 172.57 6.177 172.405 6.463C172.249 6.749 172.171 7.09567 172.171 7.503C172.171 7.90167 172.249 8.24833 172.405 8.543C172.57 8.829 172.787 9.05 173.055 9.206C173.324 9.362 173.627 9.44 173.965 9.44ZM180.564 11L178.042 4.006H179.953L182.046 10.025H181.136L183.32 4.006H185.036L187.155 10.025H186.245L188.403 4.006H190.197L187.662 11H185.699L183.84 5.839H184.438L182.514 11H180.564Z" fill="#6C63FF"/>
</svg>
