<svg width="207" height="14" viewBox="0 0 207 14" fill="none" xmlns="http://www.w3.org/2000/svg">
<path d="M3.332 11.056C2.72533 11.056 2.156 10.9673 1.624 10.79C1.10133 10.6127 0.695333 10.3887 0.406 10.118L0.728 9.558C1.008 9.80067 1.38133 10.0107 1.848 10.188C2.31467 10.356 2.81867 10.44 3.36 10.44C4.12533 10.44 4.676 10.314 5.012 10.062C5.348 9.81 5.516 9.47867 5.516 9.068C5.516 8.76933 5.42733 8.536 5.25 8.368C5.082 8.19067 4.85333 8.05533 4.564 7.962C4.27467 7.86867 3.95733 7.794 3.612 7.738C3.26667 7.67267 2.92133 7.60267 2.576 7.528C2.23067 7.45333 1.91333 7.346 1.624 7.206C1.33467 7.066 1.10133 6.87467 0.924 6.632C0.756 6.38 0.672 6.04867 0.672 5.638C0.672 5.26467 0.774667 4.92867 0.98 4.63C1.18533 4.33133 1.49333 4.09333 1.904 3.916C2.31467 3.72933 2.828 3.636 3.444 3.636C3.90133 3.636 4.35867 3.70133 4.816 3.832C5.28267 3.96267 5.66067 4.13533 5.95 4.35L5.628 4.91C5.32 4.67667 4.97467 4.50867 4.592 4.406C4.20933 4.30333 3.822 4.252 3.43 4.252C2.72067 4.252 2.198 4.38267 1.862 4.644C1.53533 4.90533 1.372 5.232 1.372 5.624C1.372 5.932 1.456 6.17933 1.624 6.366C1.80133 6.54333 2.03467 6.68333 2.324 6.786C2.61333 6.87933 2.93067 6.95867 3.276 7.024C3.62133 7.08 3.96667 7.14533 4.312 7.22C4.65733 7.29467 4.97467 7.402 5.264 7.542C5.55333 7.67267 5.782 7.85933 5.95 8.102C6.12733 8.33533 6.216 8.65267 6.216 9.054C6.216 9.45533 6.104 9.80533 5.88 10.104C5.66533 10.4027 5.34333 10.636 4.914 10.804C4.48467 10.972 3.95733 11.056 3.332 11.056ZM8.16955 11V3.692H8.86955V11H8.16955ZM8.51955 1.914C8.36088 1.914 8.22555 1.858 8.11355 1.746C8.00155 1.634 7.94555 1.50333 7.94555 1.354C7.94555 1.19533 8.00155 1.06 8.11355 0.947999C8.22555 0.836 8.36088 0.78 8.51955 0.78C8.68755 0.78 8.82288 0.836 8.92555 0.947999C9.03755 1.05067 9.09355 1.18133 9.09355 1.34C9.09355 1.49867 9.03755 1.634 8.92555 1.746C8.82288 1.858 8.68755 1.914 8.51955 1.914ZM14.8579 13.772C14.1953 13.772 13.5653 13.6693 12.9679 13.464C12.3706 13.2587 11.8853 12.974 11.5119 12.61L11.8899 12.078C12.2539 12.414 12.6879 12.6753 13.1919 12.862C13.7053 13.0487 14.2559 13.142 14.8439 13.142C15.8239 13.142 16.5426 12.9133 16.9999 12.456C17.4666 11.9987 17.6999 11.28 17.6999 10.3V8.27L17.8399 7.178L17.7279 6.086V3.692H18.3999V10.216C18.3999 11.4387 18.1013 12.3347 17.5039 12.904C16.9159 13.4827 16.0339 13.772 14.8579 13.772ZM14.6619 10.734C13.9713 10.734 13.3506 10.5847 12.7999 10.286C12.2586 9.978 11.8246 9.558 11.4979 9.026C11.1806 8.48467 11.0219 7.86867 11.0219 7.178C11.0219 6.478 11.1806 5.862 11.4979 5.33C11.8246 4.798 12.2586 4.38267 12.7999 4.084C13.3506 3.78533 13.9713 3.636 14.6619 3.636C15.3246 3.636 15.9173 3.78067 16.4399 4.07C16.9719 4.35 17.3919 4.756 17.6999 5.288C18.0079 5.81067 18.1619 6.44067 18.1619 7.178C18.1619 7.906 18.0079 8.536 17.6999 9.068C17.3919 9.6 16.9719 10.0107 16.4399 10.3C15.9173 10.5893 15.3246 10.734 14.6619 10.734ZM14.7179 10.104C15.3059 10.104 15.8239 9.98267 16.2719 9.74C16.7199 9.488 17.0699 9.14267 17.3219 8.704C17.5833 8.256 17.7139 7.74733 17.7139 7.178C17.7139 6.59933 17.5833 6.09067 17.3219 5.652C17.0699 5.21333 16.7199 4.87267 16.2719 4.63C15.8239 4.38733 15.3059 4.266 14.7179 4.266C14.1486 4.266 13.6353 4.38733 13.1779 4.63C12.7299 4.87267 12.3753 5.21333 12.1139 5.652C11.8619 6.09067 11.7359 6.59933 11.7359 7.178C11.7359 7.74733 11.8619 8.256 12.1139 8.704C12.3753 9.14267 12.7299 9.488 13.1779 9.74C13.6353 9.98267 14.1486 10.104 14.7179 10.104ZM24.9329 3.636C25.5302 3.636 26.0482 3.75267 26.4869 3.986C26.9349 4.21 27.2802 4.55533 27.5229 5.022C27.7749 5.47933 27.9009 6.04867 27.9009 6.73V11H27.2009V6.786C27.2009 5.96467 26.9909 5.33933 26.5709 4.91C26.1602 4.48067 25.5816 4.266 24.8349 4.266C24.2656 4.266 23.7709 4.38267 23.3509 4.616C22.9309 4.84933 22.6089 5.176 22.3849 5.596C22.1702 6.016 22.0629 6.52 22.0629 7.108V11H21.3629V3.692H22.0349V5.722L21.9369 5.498C22.1609 4.91933 22.5296 4.46667 23.0429 4.14C23.5562 3.804 24.1862 3.636 24.9329 3.636ZM34.3785 11V3.692H35.0785V11H34.3785ZM34.7285 1.914C34.5699 1.914 34.4345 1.858 34.3225 1.746C34.2105 1.634 34.1545 1.50333 34.1545 1.354C34.1545 1.19533 34.2105 1.06 34.3225 0.947999C34.4345 0.836 34.5699 0.78 34.7285 0.78C34.8965 0.78 35.0319 0.836 35.1345 0.947999C35.2465 1.05067 35.3025 1.18133 35.3025 1.34C35.3025 1.49867 35.2465 1.634 35.1345 1.746C35.0319 1.858 34.8965 1.914 34.7285 1.914ZM41.5989 3.636C42.1963 3.636 42.7143 3.75267 43.1529 3.986C43.6009 4.21 43.9463 4.55533 44.1889 5.022C44.4409 5.47933 44.5669 6.04867 44.5669 6.73V11H43.8669V6.786C43.8669 5.96467 43.6569 5.33933 43.2369 4.91C42.8263 4.48067 42.2476 4.266 41.5009 4.266C40.9316 4.266 40.4369 4.38267 40.0169 4.616C39.5969 4.84933 39.2749 5.176 39.0509 5.596C38.8363 6.016 38.7289 6.52 38.7289 7.108V11H38.0289V3.692H38.7009V5.722L38.6029 5.498C38.8269 4.91933 39.1956 4.46667 39.7089 4.14C40.2223 3.804 40.8523 3.636 41.5989 3.636ZM53.1725 11.056C52.5285 11.056 52.0339 10.8787 51.6885 10.524C51.3525 10.1693 51.1845 9.684 51.1845 9.068V2.096H51.8845V8.998C51.8845 9.46467 52.0012 9.824 52.2345 10.076C52.4679 10.328 52.8039 10.454 53.2425 10.454C53.6999 10.454 54.0779 10.3187 54.3765 10.048L54.6705 10.538C54.4839 10.7153 54.2552 10.846 53.9845 10.93C53.7232 11.014 53.4525 11.056 53.1725 11.056ZM49.8405 4.294V3.692H54.2085V4.294H49.8405ZM59.2189 11.056C58.5189 11.056 57.8936 10.8973 57.3429 10.58C56.8016 10.2627 56.3676 9.824 56.0409 9.264C55.7236 8.704 55.5649 8.06467 55.5649 7.346C55.5649 6.618 55.7236 5.97867 56.0409 5.428C56.3676 4.868 56.8016 4.42933 57.3429 4.112C57.8936 3.79467 58.5189 3.636 59.2189 3.636C59.9189 3.636 60.5442 3.79467 61.0949 4.112C61.6456 4.42933 62.0796 4.868 62.3969 5.428C62.7142 5.97867 62.8729 6.618 62.8729 7.346C62.8729 8.06467 62.7142 8.704 62.3969 9.264C62.0796 9.824 61.6456 10.2627 61.0949 10.58C60.5442 10.8973 59.9189 11.056 59.2189 11.056ZM59.2189 10.426C59.7789 10.426 60.2829 10.3 60.7309 10.048C61.1789 9.78667 61.5289 9.42267 61.7809 8.956C62.0329 8.48933 62.1589 7.95267 62.1589 7.346C62.1589 6.73 62.0329 6.19333 61.7809 5.736C61.5289 5.26933 61.1789 4.91 60.7309 4.658C60.2829 4.39667 59.7789 4.266 59.2189 4.266C58.6589 4.266 58.1549 4.39667 57.7069 4.658C57.2682 4.91 56.9182 5.26933 56.6569 5.736C56.4049 6.19333 56.2789 6.73 56.2789 7.346C56.2789 7.95267 56.4049 8.48933 56.6569 8.956C56.9182 9.42267 57.2682 9.78667 57.7069 10.048C58.1549 10.3 58.6589 10.426 59.2189 10.426ZM73.2463 11V9.334L73.2183 9.082V6.338C73.2183 5.65667 73.0316 5.13867 72.6583 4.784C72.2943 4.42933 71.7576 4.252 71.0483 4.252C70.5443 4.252 70.0729 4.34067 69.6343 4.518C69.2049 4.686 68.8363 4.90533 68.5283 5.176L68.1783 4.672C68.5423 4.34533 68.9809 4.09333 69.4943 3.916C70.0076 3.72933 70.5443 3.636 71.1043 3.636C72.0096 3.636 72.7049 3.86467 73.1903 4.322C73.6756 4.77933 73.9183 5.46067 73.9183 6.366V11H73.2463ZM70.6143 11.056C70.0729 11.056 69.6016 10.972 69.2003 10.804C68.8083 10.6267 68.5049 10.3793 68.2903 10.062C68.0849 9.74467 67.9823 9.38067 67.9823 8.97C67.9823 8.59667 68.0663 8.26067 68.2343 7.962C68.4116 7.654 68.7009 7.40667 69.1023 7.22C69.5036 7.024 70.0403 6.926 70.7123 6.926H73.4003V7.472H70.7263C69.9703 7.472 69.4383 7.612 69.1303 7.892C68.8316 8.172 68.6823 8.522 68.6823 8.942C68.6823 9.40867 68.8596 9.782 69.2142 10.062C69.5689 10.342 70.0683 10.482 70.7123 10.482C71.3283 10.482 71.8463 10.342 72.2663 10.062C72.6956 9.782 73.0129 9.376 73.2183 8.844L73.4143 9.32C73.2183 9.852 72.8823 10.2767 72.4063 10.594C71.9396 10.902 71.3423 11.056 70.6143 11.056ZM79.7004 11.056C78.991 11.056 78.3564 10.8973 77.7964 10.58C77.2457 10.2627 76.807 9.824 76.4804 9.264C76.163 8.704 76.0044 8.06467 76.0044 7.346C76.0044 6.618 76.163 5.974 76.4804 5.414C76.807 4.854 77.2457 4.42 77.7964 4.112C78.3564 3.79467 78.991 3.636 79.7004 3.636C80.2884 3.636 80.8204 3.748 81.2964 3.972C81.7817 4.196 82.1737 4.532 82.4724 4.98L81.9544 5.358C81.693 4.98467 81.3664 4.70933 80.9744 4.532C80.5824 4.35467 80.1577 4.266 79.7004 4.266C79.131 4.266 78.6177 4.39667 78.1604 4.658C77.7124 4.91 77.3577 5.26933 77.0964 5.736C76.8444 6.19333 76.7184 6.73 76.7184 7.346C76.7184 7.962 76.8444 8.50333 77.0964 8.97C77.3577 9.42733 77.7124 9.78667 78.1604 10.048C78.6177 10.3 79.131 10.426 79.7004 10.426C80.1577 10.426 80.5824 10.3373 80.9744 10.16C81.3664 9.98267 81.693 9.70733 81.9544 9.334L82.4724 9.712C82.1737 10.16 81.7817 10.496 81.2964 10.72C80.8204 10.944 80.2884 11.056 79.7004 11.056ZM87.3429 11.056C86.6336 11.056 85.9989 10.8973 85.4389 10.58C84.8883 10.2627 84.4496 9.824 84.1229 9.264C83.8056 8.704 83.6469 8.06467 83.6469 7.346C83.6469 6.618 83.8056 5.974 84.1229 5.414C84.4496 4.854 84.8883 4.42 85.4389 4.112C85.9989 3.79467 86.6336 3.636 87.3429 3.636C87.9309 3.636 88.4629 3.748 88.9389 3.972C89.4243 4.196 89.8163 4.532 90.1149 4.98L89.5969 5.358C89.3356 4.98467 89.0089 4.70933 88.6169 4.532C88.2249 4.35467 87.8003 4.266 87.3429 4.266C86.7736 4.266 86.2603 4.39667 85.8029 4.658C85.3549 4.91 85.0003 5.26933 84.7389 5.736C84.4869 6.19333 84.3609 6.73 84.3609 7.346C84.3609 7.962 84.4869 8.50333 84.7389 8.97C85.0003 9.42733 85.3549 9.78667 85.8029 10.048C86.2603 10.3 86.7736 10.426 87.3429 10.426C87.8003 10.426 88.2249 10.3373 88.6169 10.16C89.0089 9.98267 89.3356 9.70733 89.5969 9.334L90.1149 9.712C89.8163 10.16 89.4243 10.496 88.9389 10.72C88.4629 10.944 87.9309 11.056 87.3429 11.056ZM95.0555 11.056C94.3182 11.056 93.6648 10.8973 93.0955 10.58C92.5355 10.2627 92.0922 9.824 91.7655 9.264C91.4482 8.704 91.2895 8.06467 91.2895 7.346C91.2895 6.618 91.4388 5.97867 91.7375 5.428C92.0455 4.868 92.4655 4.42933 92.9975 4.112C93.5295 3.79467 94.1268 3.636 94.7895 3.636C95.4522 3.636 96.0448 3.79 96.5675 4.098C97.0995 4.406 97.5148 4.84 97.8135 5.4C98.1215 5.95067 98.2755 6.59 98.2755 7.318C98.2755 7.346 98.2708 7.37867 98.2615 7.416C98.2615 7.444 98.2615 7.47667 98.2615 7.514H91.8075V6.968H97.8835L97.6035 7.234C97.6128 6.66467 97.4915 6.156 97.2395 5.708C96.9968 5.25067 96.6655 4.896 96.2455 4.644C95.8255 4.38267 95.3402 4.252 94.7895 4.252C94.2482 4.252 93.7628 4.38267 93.3335 4.644C92.9135 4.896 92.5822 5.25067 92.3395 5.708C92.0968 6.156 91.9755 6.66933 91.9755 7.248V7.374C91.9755 7.97133 92.1062 8.50333 92.3675 8.97C92.6382 9.42733 93.0068 9.78667 93.4735 10.048C93.9402 10.3 94.4722 10.426 95.0695 10.426C95.5362 10.426 95.9702 10.342 96.3715 10.174C96.7822 10.006 97.1275 9.74933 97.4075 9.404L97.8135 9.866C97.4962 10.258 97.0948 10.5567 96.6095 10.762C96.1335 10.958 95.6155 11.056 95.0555 11.056ZM102.289 11.056C101.682 11.056 101.113 10.9673 100.581 10.79C100.058 10.6127 99.6524 10.3887 99.363 10.118L99.685 9.558C99.965 9.80067 100.338 10.0107 100.805 10.188C101.272 10.356 101.776 10.44 102.317 10.44C103.082 10.44 103.633 10.314 103.969 10.062C104.305 9.81 104.473 9.47867 104.473 9.068C104.473 8.76933 104.384 8.536 104.207 8.368C104.039 8.19067 103.81 8.05533 103.521 7.962C103.232 7.86867 102.914 7.794 102.569 7.738C102.224 7.67267 101.878 7.60267 101.533 7.528C101.188 7.45333 100.87 7.346 100.581 7.206C100.292 7.066 100.058 6.87467 99.881 6.632C99.713 6.38 99.629 6.04867 99.629 5.638C99.629 5.26467 99.7317 4.92867 99.937 4.63C100.142 4.33133 100.45 4.09333 100.861 3.916C101.272 3.72933 101.785 3.636 102.401 3.636C102.858 3.636 103.316 3.70133 103.773 3.832C104.24 3.96267 104.618 4.13533 104.907 4.35L104.585 4.91C104.277 4.67667 103.932 4.50867 103.549 4.406C103.166 4.30333 102.779 4.252 102.387 4.252C101.678 4.252 101.155 4.38267 100.819 4.644C100.492 4.90533 100.329 5.232 100.329 5.624C100.329 5.932 100.413 6.17933 100.581 6.366C100.758 6.54333 100.992 6.68333 101.281 6.786C101.57 6.87933 101.888 6.95867 102.233 7.024C102.578 7.08 102.924 7.14533 103.269 7.22C103.614 7.29467 103.932 7.402 104.221 7.542C104.51 7.67267 104.739 7.85933 104.907 8.102C105.084 8.33533 105.173 8.65267 105.173 9.054C105.173 9.45533 105.061 9.80533 104.837 10.104C104.622 10.4027 104.3 10.636 103.871 10.804C103.442 10.972 102.914 11.056 102.289 11.056ZM108.975 11.056C108.368 11.056 107.799 10.9673 107.267 10.79C106.744 10.6127 106.338 10.3887 106.049 10.118L106.371 9.558C106.651 9.80067 107.024 10.0107 107.491 10.188C107.957 10.356 108.461 10.44 109.003 10.44C109.768 10.44 110.319 10.314 110.655 10.062C110.991 9.81 111.159 9.47867 111.159 9.068C111.159 8.76933 111.07 8.536 110.893 8.368C110.725 8.19067 110.496 8.05533 110.207 7.962C109.917 7.86867 109.6 7.794 109.255 7.738C108.909 7.67267 108.564 7.60267 108.219 7.528C107.873 7.45333 107.556 7.346 107.267 7.206C106.977 7.066 106.744 6.87467 106.567 6.632C106.399 6.38 106.315 6.04867 106.315 5.638C106.315 5.26467 106.417 4.92867 106.623 4.63C106.828 4.33133 107.136 4.09333 107.547 3.916C107.957 3.72933 108.471 3.636 109.087 3.636C109.544 3.636 110.001 3.70133 110.459 3.832C110.925 3.96267 111.303 4.13533 111.593 4.35L111.271 4.91C110.963 4.67667 110.617 4.50867 110.235 4.406C109.852 4.30333 109.465 4.252 109.073 4.252C108.363 4.252 107.841 4.38267 107.505 4.644C107.178 4.90533 107.015 5.232 107.015 5.624C107.015 5.932 107.099 6.17933 107.267 6.366C107.444 6.54333 107.677 6.68333 107.967 6.786C108.256 6.87933 108.573 6.95867 108.919 7.024C109.264 7.08 109.609 7.14533 109.955 7.22C110.3 7.29467 110.617 7.402 110.907 7.542C111.196 7.67267 111.425 7.85933 111.593 8.102C111.77 8.33533 111.859 8.65267 111.859 9.054C111.859 9.45533 111.747 9.80533 111.523 10.104C111.308 10.4027 110.986 10.636 110.557 10.804C110.127 10.972 109.6 11.056 108.975 11.056ZM117.24 13.772C116.904 13.772 116.586 13.716 116.288 13.604C115.998 13.492 115.751 13.3287 115.546 13.114L115.896 12.582C116.082 12.778 116.283 12.9227 116.498 13.016C116.722 13.1093 116.974 13.156 117.254 13.156C117.59 13.156 117.884 13.0627 118.136 12.876C118.397 12.6893 118.64 12.3487 118.864 11.854L119.368 10.734L119.466 10.608L122.56 3.692H123.274L119.522 11.994C119.326 12.442 119.111 12.792 118.878 13.044C118.654 13.3053 118.406 13.492 118.136 13.604C117.865 13.716 117.566 13.772 117.24 13.772ZM119.354 11.182L115.966 3.692H116.708L119.788 10.566L119.354 11.182ZM127.455 11.056C126.755 11.056 126.13 10.8973 125.579 10.58C125.038 10.2627 124.604 9.824 124.277 9.264C123.96 8.704 123.801 8.06467 123.801 7.346C123.801 6.618 123.96 5.97867 124.277 5.428C124.604 4.868 125.038 4.42933 125.579 4.112C126.13 3.79467 126.755 3.636 127.455 3.636C128.155 3.636 128.781 3.79467 129.331 4.112C129.882 4.42933 130.316 4.868 130.633 5.428C130.951 5.97867 131.109 6.618 131.109 7.346C131.109 8.06467 130.951 8.704 130.633 9.264C130.316 9.824 129.882 10.2627 129.331 10.58C128.781 10.8973 128.155 11.056 127.455 11.056ZM127.455 10.426C128.015 10.426 128.519 10.3 128.967 10.048C129.415 9.78667 129.765 9.42267 130.017 8.956C130.269 8.48933 130.395 7.95267 130.395 7.346C130.395 6.73 130.269 6.19333 130.017 5.736C129.765 5.26933 129.415 4.91 128.967 4.658C128.519 4.39667 128.015 4.266 127.455 4.266C126.895 4.266 126.391 4.39667 125.943 4.658C125.505 4.91 125.155 5.26933 124.893 5.736C124.641 6.19333 124.515 6.73 124.515 7.346C124.515 7.95267 124.641 8.48933 124.893 8.956C125.155 9.42267 125.505 9.78667 125.943 10.048C126.391 10.3 126.895 10.426 127.455 10.426ZM136.249 11.056C135.624 11.056 135.082 10.944 134.625 10.72C134.168 10.4867 133.813 10.1413 133.561 9.684C133.318 9.21733 133.197 8.64333 133.197 7.962V3.692H133.897V7.906C133.897 8.72733 134.107 9.35267 134.527 9.782C134.947 10.2113 135.54 10.426 136.305 10.426C136.856 10.426 137.332 10.3093 137.733 10.076C138.134 9.84267 138.442 9.516 138.657 9.096C138.872 8.66667 138.979 8.16267 138.979 7.584V3.692H139.679V11H139.007V8.97L139.105 9.208C138.89 9.77733 138.531 10.23 138.027 10.566C137.532 10.8927 136.94 11.056 136.249 11.056ZM142.646 11V3.692H143.318V5.694L143.248 5.47C143.453 4.882 143.799 4.42933 144.284 4.112C144.769 3.79467 145.376 3.636 146.104 3.636V4.322C146.076 4.322 146.048 4.322 146.02 4.322C145.992 4.31267 145.964 4.308 145.936 4.308C145.124 4.308 144.489 4.56467 144.032 5.078C143.575 5.582 143.346 6.28667 143.346 7.192V11H142.646ZM156.358 11V9.334L156.33 9.082V6.338C156.33 5.65667 156.143 5.13867 155.77 4.784C155.406 4.42933 154.869 4.252 154.16 4.252C153.656 4.252 153.184 4.34067 152.746 4.518C152.316 4.686 151.948 4.90533 151.64 5.176L151.29 4.672C151.654 4.34533 152.092 4.09333 152.606 3.916C153.119 3.72933 153.656 3.636 154.216 3.636C155.121 3.636 155.816 3.86467 156.302 4.322C156.787 4.77933 157.03 5.46067 157.03 6.366V11H156.358ZM153.726 11.056C153.184 11.056 152.713 10.972 152.312 10.804C151.92 10.6267 151.616 10.3793 151.402 10.062C151.196 9.74467 151.094 9.38067 151.094 8.97C151.094 8.59667 151.178 8.26067 151.346 7.962C151.523 7.654 151.812 7.40667 152.214 7.22C152.615 7.024 153.152 6.926 153.824 6.926H156.512V7.472H153.838C153.082 7.472 152.55 7.612 152.242 7.892C151.943 8.172 151.794 8.522 151.794 8.942C151.794 9.40867 151.971 9.782 152.326 10.062C152.68 10.342 153.18 10.482 153.824 10.482C154.44 10.482 154.958 10.342 155.378 10.062C155.807 9.782 156.124 9.376 156.33 8.844L156.526 9.32C156.33 9.852 155.994 10.2767 155.518 10.594C155.051 10.902 154.454 11.056 153.726 11.056ZM162.812 11.056C162.102 11.056 161.468 10.8973 160.908 10.58C160.357 10.2627 159.918 9.824 159.592 9.264C159.274 8.704 159.116 8.06467 159.116 7.346C159.116 6.618 159.274 5.974 159.592 5.414C159.918 4.854 160.357 4.42 160.908 4.112C161.468 3.79467 162.102 3.636 162.812 3.636C163.4 3.636 163.932 3.748 164.408 3.972C164.893 4.196 165.285 4.532 165.584 4.98L165.066 5.358C164.804 4.98467 164.478 4.70933 164.086 4.532C163.694 4.35467 163.269 4.266 162.812 4.266C162.242 4.266 161.729 4.39667 161.272 4.658C160.824 4.91 160.469 5.26933 160.208 5.736C159.956 6.19333 159.83 6.73 159.83 7.346C159.83 7.962 159.956 8.50333 160.208 8.97C160.469 9.42733 160.824 9.78667 161.272 10.048C161.729 10.3 162.242 10.426 162.812 10.426C163.269 10.426 163.694 10.3373 164.086 10.16C164.478 9.98267 164.804 9.70733 165.066 9.334L165.584 9.712C165.285 10.16 164.893 10.496 164.408 10.72C163.932 10.944 163.4 11.056 162.812 11.056ZM170.454 11.056C169.745 11.056 169.11 10.8973 168.55 10.58C168 10.2627 167.561 9.824 167.234 9.264C166.917 8.704 166.758 8.06467 166.758 7.346C166.758 6.618 166.917 5.974 167.234 5.414C167.561 4.854 168 4.42 168.55 4.112C169.11 3.79467 169.745 3.636 170.454 3.636C171.042 3.636 171.574 3.748 172.05 3.972C172.536 4.196 172.928 4.532 173.226 4.98L172.708 5.358C172.447 4.98467 172.12 4.70933 171.728 4.532C171.336 4.35467 170.912 4.266 170.454 4.266C169.885 4.266 169.372 4.39667 168.914 4.658C168.466 4.91 168.112 5.26933 167.85 5.736C167.598 6.19333 167.472 6.73 167.472 7.346C167.472 7.962 167.598 8.50333 167.85 8.97C168.112 9.42733 168.466 9.78667 168.914 10.048C169.372 10.3 169.885 10.426 170.454 10.426C170.912 10.426 171.336 10.3373 171.728 10.16C172.12 9.98267 172.447 9.70733 172.708 9.334L173.226 9.712C172.928 10.16 172.536 10.496 172.05 10.72C171.574 10.944 171.042 11.056 170.454 11.056ZM178.055 11.056C177.355 11.056 176.73 10.8973 176.179 10.58C175.638 10.2627 175.204 9.824 174.877 9.264C174.56 8.704 174.401 8.06467 174.401 7.346C174.401 6.618 174.56 5.97867 174.877 5.428C175.204 4.868 175.638 4.42933 176.179 4.112C176.73 3.79467 177.355 3.636 178.055 3.636C178.755 3.636 179.38 3.79467 179.931 4.112C180.482 4.42933 180.916 4.868 181.233 5.428C181.55 5.97867 181.709 6.618 181.709 7.346C181.709 8.06467 181.55 8.704 181.233 9.264C180.916 9.824 180.482 10.2627 179.931 10.58C179.38 10.8973 178.755 11.056 178.055 11.056ZM178.055 10.426C178.615 10.426 179.119 10.3 179.567 10.048C180.015 9.78667 180.365 9.42267 180.617 8.956C180.869 8.48933 180.995 7.95267 180.995 7.346C180.995 6.73 180.869 6.19333 180.617 5.736C180.365 5.26933 180.015 4.91 179.567 4.658C179.119 4.39667 178.615 4.266 178.055 4.266C177.495 4.266 176.991 4.39667 176.543 4.658C176.104 4.91 175.754 5.26933 175.493 5.736C175.241 6.19333 175.115 6.73 175.115 7.346C175.115 7.95267 175.241 8.48933 175.493 8.956C175.754 9.42267 176.104 9.78667 176.543 10.048C176.991 10.3 177.495 10.426 178.055 10.426ZM186.848 11.056C186.223 11.056 185.682 10.944 185.224 10.72C184.767 10.4867 184.412 10.1413 184.16 9.684C183.918 9.21733 183.796 8.64333 183.796 7.962V3.692H184.496V7.906C184.496 8.72733 184.706 9.35267 185.126 9.782C185.546 10.2113 186.139 10.426 186.904 10.426C187.455 10.426 187.931 10.3093 188.332 10.076C188.734 9.84267 189.042 9.516 189.256 9.096C189.471 8.66667 189.578 8.16267 189.578 7.584V3.692H190.278V11H189.606V8.97L189.704 9.208C189.49 9.77733 189.13 10.23 188.626 10.566C188.132 10.8927 187.539 11.056 186.848 11.056ZM196.816 3.636C197.413 3.636 197.931 3.75267 198.37 3.986C198.818 4.21 199.163 4.55533 199.406 5.022C199.658 5.47933 199.784 6.04867 199.784 6.73V11H199.084V6.786C199.084 5.96467 198.874 5.33933 198.454 4.91C198.043 4.48067 197.464 4.266 196.718 4.266C196.148 4.266 195.654 4.38267 195.234 4.616C194.814 4.84933 194.492 5.176 194.268 5.596C194.053 6.016 193.946 6.52 193.946 7.108V11H193.246V3.692H193.918V5.722L193.82 5.498C194.044 4.91933 194.412 4.46667 194.926 4.14C195.439 3.804 196.069 3.636 196.816 3.636ZM204.794 11.056C204.15 11.056 203.655 10.8787 203.31 10.524C202.974 10.1693 202.806 9.684 202.806 9.068V2.096H203.506V8.998C203.506 9.46467 203.622 9.824 203.856 10.076C204.089 10.328 204.425 10.454 204.864 10.454C205.321 10.454 205.699 10.3187 205.998 10.048L206.292 10.538C206.105 10.7153 205.876 10.846 205.606 10.93C205.344 11.014 205.074 11.056 204.794 11.056ZM201.462 4.294V3.692H205.83V4.294H201.462Z" fill="#252525"/>
</svg>
