<svg width="182" height="19" viewBox="0 0 182 19" fill="none" xmlns="http://www.w3.org/2000/svg">
<path d="M6.384 18L0.768 1.2H3.24L8.4 16.704H7.152L12.504 1.2H14.712L19.944 16.704H18.744L23.976 1.2H26.256L20.64 18H18.12L13.224 3.624H13.872L8.952 18H6.384ZM33.5589 18.144C32.1989 18.144 30.9989 17.864 29.9589 17.304C28.9349 16.744 28.1349 15.976 27.5589 15C26.9989 14.024 26.7189 12.904 26.7189 11.64C26.7189 10.376 26.9909 9.256 27.5349 8.28C28.0949 7.304 28.8549 6.544 29.8149 6C30.7909 5.44 31.8869 5.16 33.1029 5.16C34.3349 5.16 35.4229 5.432 36.3669 5.976C37.3109 6.52 38.0469 7.288 38.5749 8.28C39.1189 9.256 39.3909 10.4 39.3909 11.712C39.3909 11.808 39.3829 11.92 39.3669 12.048C39.3669 12.176 39.3589 12.296 39.3429 12.408H28.5189V10.752H38.1429L37.2069 11.328C37.2229 10.512 37.0549 9.784 36.7029 9.144C36.3509 8.504 35.8629 8.008 35.2389 7.656C34.6309 7.288 33.9189 7.104 33.1029 7.104C32.3029 7.104 31.5909 7.288 30.9669 7.656C30.3429 8.008 29.8549 8.512 29.5029 9.168C29.1509 9.808 28.9749 10.544 28.9749 11.376V11.76C28.9749 12.608 29.1669 13.368 29.5509 14.04C29.9509 14.696 30.5029 15.208 31.2069 15.576C31.9109 15.944 32.7189 16.128 33.6309 16.128C34.3829 16.128 35.0629 16 35.6709 15.744C36.2949 15.488 36.8389 15.104 37.3029 14.592L38.5749 16.08C37.9989 16.752 37.2789 17.264 36.4149 17.616C35.5669 17.968 34.6149 18.144 33.5589 18.144ZM42.5903 18V0.191999H44.8943V18H42.5903ZM54.8374 18.144C53.5414 18.144 52.3814 17.864 51.3574 17.304C50.3494 16.744 49.5574 15.976 48.9814 15C48.4054 14.024 48.1174 12.904 48.1174 11.64C48.1174 10.376 48.4054 9.256 48.9814 8.28C49.5574 7.304 50.3494 6.544 51.3574 6C52.3814 5.44 53.5414 5.16 54.8374 5.16C55.9894 5.16 57.0134 5.392 57.9094 5.856C58.8214 6.304 59.5254 6.976 60.0214 7.872L58.2694 9C57.8534 8.376 57.3414 7.92 56.7334 7.632C56.1414 7.328 55.5014 7.176 54.8134 7.176C53.9814 7.176 53.2374 7.36 52.5814 7.728C51.9254 8.096 51.4054 8.616 51.0214 9.288C50.6374 9.944 50.4454 10.728 50.4454 11.64C50.4454 12.552 50.6374 13.344 51.0214 14.016C51.4054 14.688 51.9254 15.208 52.5814 15.576C53.2374 15.944 53.9814 16.128 54.8134 16.128C55.5014 16.128 56.1414 15.984 56.7334 15.696C57.3414 15.392 57.8534 14.928 58.2694 14.304L60.0214 15.408C59.5254 16.288 58.8214 16.968 57.9094 17.448C57.0134 17.912 55.9894 18.144 54.8374 18.144ZM68.2648 18.144C66.9848 18.144 65.8488 17.864 64.8568 17.304C63.8648 16.744 63.0808 15.976 62.5048 15C61.9288 14.008 61.6408 12.888 61.6408 11.64C61.6408 10.376 61.9288 9.256 62.5048 8.28C63.0808 7.304 63.8648 6.544 64.8568 6C65.8488 5.44 66.9848 5.16 68.2648 5.16C69.5288 5.16 70.6568 5.44 71.6488 6C72.6568 6.544 73.4408 7.304 74.0008 8.28C74.5768 9.24 74.8648 10.36 74.8648 11.64C74.8648 12.904 74.5768 14.024 74.0008 15C73.4408 15.976 72.6568 16.744 71.6488 17.304C70.6568 17.864 69.5288 18.144 68.2648 18.144ZM68.2648 16.128C69.0808 16.128 69.8088 15.944 70.4488 15.576C71.1048 15.208 71.6168 14.688 71.9848 14.016C72.3528 13.328 72.5368 12.536 72.5368 11.64C72.5368 10.728 72.3528 9.944 71.9848 9.288C71.6168 8.616 71.1048 8.096 70.4488 7.728C69.8088 7.36 69.0808 7.176 68.2648 7.176C67.4488 7.176 66.7208 7.36 66.0808 7.728C65.4408 8.096 64.9288 8.616 64.5448 9.288C64.1608 9.944 63.9688 10.728 63.9688 11.64C63.9688 12.536 64.1608 13.328 64.5448 14.016C64.9288 14.688 65.4408 15.208 66.0808 15.576C66.7208 15.944 67.4488 16.128 68.2648 16.128ZM93.9632 5.16C94.9872 5.16 95.8912 5.36 96.6752 5.76C97.4592 6.16 98.0672 6.768 98.4992 7.584C98.9472 8.4 99.1712 9.432 99.1712 10.68V18H96.8672V10.944C96.8672 9.712 96.5792 8.784 96.0032 8.16C95.4272 7.536 94.6192 7.224 93.5792 7.224C92.8112 7.224 92.1392 7.384 91.5632 7.704C90.9872 8.024 90.5392 8.496 90.2192 9.12C89.9152 9.744 89.7632 10.52 89.7632 11.448V18H87.4592V10.944C87.4592 9.712 87.1712 8.784 86.5952 8.16C86.0352 7.536 85.2272 7.224 84.1712 7.224C83.4192 7.224 82.7552 7.384 82.1792 7.704C81.6032 8.024 81.1552 8.496 80.8352 9.12C80.5152 9.744 80.3552 10.52 80.3552 11.448V18H78.0512V5.28H80.2592V8.664L79.8992 7.8C80.2992 6.968 80.9152 6.32 81.7472 5.856C82.5792 5.392 83.5472 5.16 84.6512 5.16C85.8672 5.16 86.9152 5.464 87.7952 6.072C88.6752 6.664 89.2512 7.568 89.5232 8.784L88.5872 8.4C88.9712 7.424 89.6432 6.64 90.6032 6.048C91.5632 5.456 92.6832 5.16 93.9632 5.16ZM109.075 18.144C107.715 18.144 106.515 17.864 105.475 17.304C104.451 16.744 103.651 15.976 103.075 15C102.515 14.024 102.235 12.904 102.235 11.64C102.235 10.376 102.507 9.256 103.051 8.28C103.611 7.304 104.371 6.544 105.331 6C106.307 5.44 107.403 5.16 108.619 5.16C109.851 5.16 110.939 5.432 111.883 5.976C112.827 6.52 113.563 7.288 114.091 8.28C114.635 9.256 114.907 10.4 114.907 11.712C114.907 11.808 114.899 11.92 114.883 12.048C114.883 12.176 114.875 12.296 114.859 12.408H104.035V10.752H113.659L112.723 11.328C112.739 10.512 112.571 9.784 112.219 9.144C111.867 8.504 111.379 8.008 110.755 7.656C110.147 7.288 109.435 7.104 108.619 7.104C107.819 7.104 107.107 7.288 106.483 7.656C105.859 8.008 105.371 8.512 105.019 9.168C104.667 9.808 104.491 10.544 104.491 11.376V11.76C104.491 12.608 104.683 13.368 105.067 14.04C105.467 14.696 106.019 15.208 106.723 15.576C107.427 15.944 108.235 16.128 109.147 16.128C109.899 16.128 110.579 16 111.187 15.744C111.811 15.488 112.355 15.104 112.819 14.592L114.091 16.08C113.515 16.752 112.795 17.264 111.931 17.616C111.083 17.968 110.131 18.144 109.075 18.144ZM131.295 18.144C130.207 18.144 129.223 17.904 128.343 17.424C127.479 16.928 126.791 16.2 126.279 15.24C125.783 14.28 125.535 13.08 125.535 11.64C125.535 10.2 125.791 9 126.303 8.04C126.831 7.08 127.527 6.36 128.391 5.88C129.271 5.4 130.239 5.16 131.295 5.16C132.543 5.16 133.647 5.432 134.607 5.976C135.567 6.52 136.327 7.28 136.887 8.256C137.447 9.216 137.727 10.344 137.727 11.64C137.727 12.936 137.447 14.072 136.887 15.048C136.327 16.024 135.567 16.784 134.607 17.328C133.647 17.872 132.543 18.144 131.295 18.144ZM124.551 18V0.191999H126.855V8.664L126.615 11.616L126.759 14.568V18H124.551ZM131.103 16.128C131.919 16.128 132.647 15.944 133.287 15.576C133.943 15.208 134.455 14.688 134.823 14.016C135.207 13.328 135.399 12.536 135.399 11.64C135.399 10.728 135.207 9.944 134.823 9.288C134.455 8.616 133.943 8.096 133.287 7.728C132.647 7.36 131.919 7.176 131.103 7.176C130.303 7.176 129.575 7.36 128.919 7.728C128.279 8.096 127.767 8.616 127.383 9.288C127.015 9.944 126.831 10.728 126.831 11.64C126.831 12.536 127.015 13.328 127.383 14.016C127.767 14.688 128.279 15.208 128.919 15.576C129.575 15.944 130.303 16.128 131.103 16.128ZM148.689 18V15.312L148.569 14.808V10.224C148.569 9.248 148.281 8.496 147.705 7.968C147.145 7.424 146.297 7.152 145.161 7.152C144.409 7.152 143.673 7.28 142.953 7.536C142.233 7.776 141.625 8.104 141.129 8.52L140.169 6.792C140.825 6.264 141.609 5.864 142.521 5.592C143.449 5.304 144.417 5.16 145.425 5.16C147.169 5.16 148.513 5.584 149.457 6.432C150.401 7.28 150.873 8.576 150.873 10.32V18H148.689ZM144.513 18.144C143.569 18.144 142.737 17.984 142.017 17.664C141.313 17.344 140.769 16.904 140.385 16.344C140.001 15.768 139.809 15.12 139.809 14.4C139.809 13.712 139.969 13.088 140.289 12.528C140.625 11.968 141.161 11.52 141.897 11.184C142.649 10.848 143.657 10.68 144.921 10.68H148.953V12.336H145.017C143.865 12.336 143.089 12.528 142.689 12.912C142.289 13.296 142.089 13.76 142.089 14.304C142.089 14.928 142.337 15.432 142.833 15.816C143.329 16.184 144.017 16.368 144.897 16.368C145.761 16.368 146.513 16.176 147.153 15.792C147.809 15.408 148.281 14.848 148.569 14.112L149.025 15.696C148.721 16.448 148.185 17.048 147.417 17.496C146.649 17.928 145.681 18.144 144.513 18.144ZM160.681 18.144C159.385 18.144 158.225 17.864 157.201 17.304C156.193 16.744 155.401 15.976 154.825 15C154.249 14.024 153.961 12.904 153.961 11.64C153.961 10.376 154.249 9.256 154.825 8.28C155.401 7.304 156.193 6.544 157.201 6C158.225 5.44 159.385 5.16 160.681 5.16C161.833 5.16 162.857 5.392 163.753 5.856C164.665 6.304 165.369 6.976 165.865 7.872L164.113 9C163.697 8.376 163.185 7.92 162.577 7.632C161.985 7.328 161.345 7.176 160.657 7.176C159.825 7.176 159.081 7.36 158.425 7.728C157.769 8.096 157.249 8.616 156.865 9.288C156.481 9.944 156.289 10.728 156.289 11.64C156.289 12.552 156.481 13.344 156.865 14.016C157.249 14.688 157.769 15.208 158.425 15.576C159.081 15.944 159.825 16.128 160.657 16.128C161.345 16.128 161.985 15.984 162.577 15.696C163.185 15.392 163.697 14.928 164.113 14.304L165.865 15.408C165.369 16.288 164.665 16.968 163.753 17.448C162.857 17.912 161.833 18.144 160.681 18.144ZM170.556 14.928L170.604 11.976L177.924 5.28H180.708L175.092 10.8L173.844 11.856L170.556 14.928ZM168.684 18V0.191999H170.988V18H168.684ZM178.404 18L173.412 11.808L174.9 9.96L181.236 18H178.404Z" fill="#252525"/>
</svg>
